<svg width="28" height="28" viewBox="0 0 28 28" fill="none" xmlns="http://www.w3.org/2000/svg">
<g clip-path="url(#clip0)">
<path fill-rule="evenodd" clip-rule="evenodd" d="M14 7.23791e-06C10.6731 -0.00337416 7.45366 1.17813 4.91874 3.33279C2.38381 5.48745 0.699046 8.47443 0.166365 11.7584C-0.366316 15.0424 0.287906 18.4088 2.01179 21.2543C3.73567 24.0997 6.41654 26.2383 9.57395 27.2867C10.2787 27.4156 10.5279 26.9773 10.5279 26.6077C10.5279 26.2382 10.5279 25.396 10.5279 24.2271C6.61753 25.078 5.79249 22.345 5.79249 22.345C5.53307 21.498 4.98195 20.7703 4.23693 20.291C2.97358 19.4316 4.34006 19.4316 4.34006 19.4316C4.78292 19.4941 5.20574 19.6566 5.5765 19.9068C5.94726 20.1569 6.25623 20.4882 6.48003 20.8754C6.67018 21.2202 6.92655 21.524 7.23443 21.7695C7.5423 22.015 7.89562 22.1973 8.27411 22.3059C8.6526 22.4145 9.0488 22.4472 9.43999 22.4023C9.83118 22.3574 10.2097 22.2357 10.5537 22.0442C10.6076 21.3372 10.9124 20.6727 11.4131 20.1707C8.302 19.8183 5.0362 18.6151 5.0362 13.2953C5.01483 11.9056 5.52871 10.5609 6.47143 9.5396C6.05157 8.33128 6.10064 7.00936 6.60894 5.83549C6.60894 5.83549 7.78635 5.45734 10.4592 7.27073C12.7543 6.64056 15.1769 6.64056 17.472 7.27073C20.1449 5.45734 21.3137 5.83549 21.3137 5.83549C21.829 6.99693 21.8904 8.30937 21.4856 9.51382C22.4283 10.5351 22.9421 11.8798 22.9208 13.2695C22.9208 18.6495 19.6464 19.8269 16.5267 20.1449C16.8612 20.4811 17.1195 20.8854 17.2841 21.3303C17.4487 21.7751 17.5157 22.2501 17.4806 22.7231C17.4806 24.5967 17.4806 26.1093 17.4806 26.5648C17.4806 27.0203 17.7299 27.3726 18.4432 27.2351C21.5647 26.1591 24.2054 24.0144 25.8988 21.18C27.5923 18.3456 28.2294 15.004 27.6978 11.7453C27.1662 8.48664 25.5 5.52074 22.9935 3.37155C20.487 1.22235 17.3016 0.028187 14 7.23791e-06V7.23791e-06Z" fill="#0FB2D6"/>
</g>
<defs>
<clipPath id="clip0">
<rect width="28" height="27.3039" fill="white"/>
</clipPath>
</defs>
</svg>
