<svg width="47" height="57" viewBox="0 0 47 57" fill="none" xmlns="http://www.w3.org/2000/svg">
<path d="M0 6.03175C0 2.70051 2.7005 0 6.03175 0H25.8198L46.746 20.6247V50.9683C46.746 54.2995 44.0455 57 40.7143 57H6.03174C2.7005 57 0 54.2995 0 50.9683V6.03175Z" fill="url(#paint0_linear)"/>
<mask id="mask0" mask-type="alpha" maskUnits="userSpaceOnUse" x="0" y="0" width="47" height="57">
<path d="M0 6.03175C0 2.70051 2.7005 0 6.03175 0H25.8198L46.746 20.6247V50.9683C46.746 54.2995 44.0455 57 40.7143 57H6.03174C2.7005 57 0 54.2995 0 50.9683V6.03175Z" fill="#C4C4C4"/>
</mask>
<g mask="url(#mask0)">
<path d="M25.8198 -30.3438C25.8198 -33.675 28.5203 -36.3755 31.8516 -36.3755H59.8992L72.5659 -24.0105V14.5927C72.5659 17.9239 69.8654 20.6245 66.5341 20.6245H31.8516C28.5203 20.6245 25.8198 17.9239 25.8198 14.5927V-30.3438Z" fill="#1895B0"/>
</g>
<path fill-rule="evenodd" clip-rule="evenodd" d="M9.1936 18.3868C9.1936 17.3713 10.0168 16.5481 11.0323 16.5481H16.5484C17.5639 16.5481 18.3872 17.3713 18.3872 18.3868C18.3872 19.4023 17.5639 20.2255 16.5484 20.2255H11.0323C10.0168 20.2255 9.1936 19.4023 9.1936 18.3868Z" fill="#F2F2F2"/>
<path fill-rule="evenodd" clip-rule="evenodd" d="M9.1936 27.5802C9.1936 26.5647 10.0168 25.7415 11.0323 25.7415H34.9355C35.951 25.7415 36.7742 26.5647 36.7742 27.5802C36.7742 28.5957 35.951 29.4189 34.9355 29.4189H11.0323C10.0168 29.4189 9.1936 28.5957 9.1936 27.5802Z" fill="#F2F2F2"/>
<path fill-rule="evenodd" clip-rule="evenodd" d="M9.1936 36.7745C9.1936 35.759 10.0168 34.9358 11.0323 34.9358H34.9355C35.951 34.9358 36.7742 35.759 36.7742 36.7745C36.7742 37.79 35.951 38.6132 34.9355 38.6132H11.0323C10.0168 38.6132 9.1936 37.79 9.1936 36.7745Z" fill="#F2F2F2"/>
<path fill-rule="evenodd" clip-rule="evenodd" d="M9.1936 45.9679C9.1936 44.9524 10.0168 44.1292 11.0323 44.1292H34.9355C35.951 44.1292 36.7742 44.9524 36.7742 45.9679C36.7742 46.9834 35.951 47.8066 34.9355 47.8066H11.0323C10.0168 47.8066 9.1936 46.9834 9.1936 45.9679Z" fill="#F2F2F2"/>
<defs>
<linearGradient id="paint0_linear" x1="23.373" y1="0" x2="23.373" y2="57" gradientUnits="userSpaceOnUse">
<stop stop-color="#0FB2D6"/>
<stop offset="1" stop-color="#0FD3CB"/>
</linearGradient>
</defs>
</svg>
