<svg width="228" height="56" viewBox="0 0 228 56" fill="none" xmlns="http://www.w3.org/2000/svg">
<path fill-rule="evenodd" clip-rule="evenodd" d="M104.994 38.8623C104.6 39.7747 104.062 40.5753 103.382 41.2639C102.702 41.9533 101.902 42.4994 100.985 42.9012C100.067 43.3038 99.0858 43.5047 98.039 43.5047C96.9781 43.5047 95.9895 43.3038 95.0717 42.9012C94.1539 42.4994 93.3588 41.958 92.6864 41.2741C92.0124 40.5926 91.4784 39.7928 91.0844 38.8741C90.6904 37.9546 90.493 36.9776 90.493 35.9439C90.493 34.9101 90.6904 33.9339 91.0844 33.0144C91.4784 32.0965 92.0124 31.2951 92.6864 30.612C93.3588 29.932 94.1539 29.3892 95.0717 28.9865C95.9895 28.5855 96.9781 28.3838 98.039 28.3838C99.0858 28.3838 100.067 28.5855 100.985 28.9865C101.902 29.3892 102.702 29.9352 103.382 30.6238C104.062 31.3133 104.6 32.113 104.994 33.0262C105.388 33.9378 105.586 34.9101 105.586 35.9439C105.586 36.9776 105.388 37.9515 104.994 38.8623ZM107.822 13.5425C107.177 13.5425 106.642 13.7553 106.22 14.1784C105.797 14.6031 105.586 15.1373 105.586 15.7826V26.5314C103.407 24.7641 100.891 23.8824 98.039 23.8824C94.7139 23.8824 91.8756 25.0588 89.5257 27.4146C87.1742 29.7705 86 32.6125 86 35.9439C86 39.2752 87.1742 42.1188 89.5257 44.4739C91.8756 46.829 94.7139 48.0053 98.039 48.0053C101.335 48.0053 104.173 46.829 106.553 44.4739C108.904 42.1471 110.079 39.3035 110.079 35.9439V15.7826C110.079 15.1373 109.86 14.6031 109.424 14.1784C108.986 13.7553 108.452 13.5425 107.822 13.5425Z" fill="#37AAF7"/>
<path fill-rule="evenodd" clip-rule="evenodd" d="M131.405 38.8618C131.01 39.7742 130.471 40.5748 129.791 41.2634C129.111 41.9528 128.311 42.4988 127.395 42.9007C126.477 43.3033 125.496 43.5042 124.449 43.5042C123.388 43.5042 122.399 43.3033 121.483 42.9007C120.565 42.4988 119.769 41.9575 119.095 41.2736C118.421 40.5921 117.888 39.7923 117.493 38.8736C117.099 37.9541 116.902 36.9771 116.902 35.9434C116.902 34.9096 117.099 33.9334 117.493 33.0139C117.888 32.0959 118.421 31.2946 119.095 30.6115C119.769 29.9315 120.565 29.3887 121.483 28.986C122.399 28.585 123.388 28.3833 124.449 28.3833C125.496 28.3833 126.477 28.585 127.395 28.986C128.311 29.3887 129.111 29.9347 129.791 30.6233C130.471 31.3128 131.01 32.1125 131.405 33.0257C131.798 33.9373 131.995 34.9096 131.995 35.9434C131.995 36.9771 131.798 37.951 131.405 38.8618ZM132.962 27.4141C130.583 25.0583 127.745 23.8819 124.449 23.8819C121.123 23.8819 118.285 25.0583 115.936 27.4141C113.585 29.77 112.409 32.612 112.409 35.9434C112.409 39.2747 113.585 42.1183 115.936 44.4734C118.285 46.8285 121.123 48.0048 124.449 48.0048C127.745 48.0048 130.583 46.8285 132.962 44.4734C135.313 42.1466 136.489 39.303 136.489 35.9434C136.474 34.2777 136.176 32.735 135.597 31.3128C135.016 29.8914 134.138 28.5921 132.962 27.4141Z" fill="#37AAF7"/>
<path fill-rule="evenodd" clip-rule="evenodd" d="M182.74 26.1212C182.74 25.8194 182.68 25.5334 182.558 25.26C182.436 24.9874 182.275 24.7471 182.074 24.5383C181.873 24.331 181.637 24.1695 181.365 24.0529C181.092 23.9386 180.798 23.8819 180.483 23.8819C180.039 23.8819 179.638 23.997 179.28 24.2262L166.424 32.605V15.8042C166.424 15.1723 166.204 14.6381 165.767 14.1992C165.33 13.7619 164.803 13.5421 164.186 13.5421C163.555 13.5421 163.022 13.7619 162.586 14.1992C162.148 14.6381 161.929 15.1723 161.929 15.8042V45.7435C161.929 46.3613 162.148 46.8931 162.586 47.3375C163.022 47.7827 163.555 48.0049 164.186 48.0049C164.803 48.0049 165.33 47.7827 165.767 47.3375C166.204 46.8931 166.424 46.3613 166.424 45.7435V37.9676L169.046 36.246L178.979 47.4242C179.38 47.8118 179.881 48.0049 180.483 48.0049C180.798 48.0049 181.092 47.9481 181.365 47.8331C181.637 47.7188 181.873 47.5573 182.074 47.3485C182.275 47.1413 182.436 46.8994 182.558 46.6268C182.68 46.3557 182.74 46.0658 182.74 45.7656C182.74 45.1778 182.532 44.653 182.117 44.1921L172.872 33.7679L181.88 27.909C182.454 27.5205 182.74 26.9264 182.74 26.1212Z" fill="#37AAF7"/>
<path fill-rule="evenodd" clip-rule="evenodd" d="M145.441 30.591C146.129 29.9095 146.932 29.3705 147.85 28.9758C148.767 28.581 149.749 28.3833 150.796 28.3833C151.741 28.3833 152.614 28.5416 153.418 28.8568C154.219 29.1736 154.987 29.6408 155.718 30.2569C156.148 30.6013 156.636 30.7738 157.18 30.7738C157.825 30.7738 158.358 30.5587 158.781 30.1277C159.204 29.6967 159.417 29.1578 159.417 28.5125C159.417 27.838 159.158 27.2707 158.642 26.8106C156.434 24.8581 153.819 23.8819 150.796 23.8819C147.469 23.8819 144.631 25.0583 142.281 27.4141C139.931 29.77 138.755 32.612 138.755 35.9434C138.755 39.2747 139.931 42.1183 142.281 44.4734C144.631 46.8285 147.469 48.0048 150.796 48.0048C153.805 48.0048 156.42 47.0286 158.642 45.0761C159.115 44.6018 159.351 44.0503 159.351 43.4176C159.351 42.7715 159.139 42.2365 158.718 41.8126C158.294 41.3895 157.76 41.1767 157.116 41.1767C156.571 41.1917 156.098 41.3493 155.696 41.651C154.98 42.2688 154.219 42.7321 153.418 43.0409C152.614 43.349 151.741 43.5042 150.796 43.5042C149.749 43.5042 148.767 43.3057 147.85 42.9117C146.932 42.517 146.129 41.978 145.441 41.2965C144.752 40.6141 144.212 39.8136 143.818 38.8941C143.424 37.9754 143.227 36.9921 143.227 35.9434C143.227 34.8962 143.424 33.9113 143.818 32.9918C144.212 32.0739 144.752 31.2734 145.441 30.591Z" fill="#37AAF7"/>
<path fill-rule="evenodd" clip-rule="evenodd" d="M227.397 25.3884C226.996 25.0015 226.491 24.6966 225.883 24.4728C225.273 24.2514 224.606 24.0962 223.884 24.0095C223.159 23.9236 222.481 23.8819 221.851 23.8819C220.418 23.8819 219.07 24.1112 217.809 24.5705C216.548 25.0307 215.38 25.6902 214.305 26.5529V26.1212C214.305 25.505 214.087 24.9763 213.649 24.5382C213.212 24.1001 212.684 23.8819 212.069 23.8819C211.437 23.8819 210.905 24.1001 210.467 24.5382C210.03 24.9763 209.812 25.505 209.812 26.1212V45.7656C209.812 46.3833 210.03 46.9104 210.467 47.3485C210.905 47.7866 211.437 48.0048 212.069 48.0048C212.684 48.0048 213.212 47.7866 213.649 47.3485C214.087 46.9104 214.305 46.3833 214.305 45.7656V35.9434C214.305 34.8962 214.503 33.9113 214.896 32.9918C215.29 32.0739 215.827 31.2734 216.508 30.591C217.189 29.9095 217.988 29.3705 218.905 28.9758C219.822 28.581 220.805 28.3833 221.851 28.3833C222.912 28.3833 223.893 28.5629 224.797 28.9222C225.154 29.0798 225.47 29.1578 225.743 29.1578C226.057 29.1578 226.351 29.1019 226.624 28.986C226.896 28.871 227.132 28.7103 227.333 28.5015C227.533 28.2942 227.695 28.0531 227.817 27.7789C227.939 27.5079 228 27.2132 228 26.8965C228 26.2795 227.799 25.776 227.397 25.3884Z" fill="#37AAF7"/>
<path fill-rule="evenodd" clip-rule="evenodd" d="M188.101 33.7314C188.33 32.9427 188.682 32.2217 189.154 31.567C189.627 30.9146 190.186 30.3536 190.832 29.8863C191.476 29.4215 192.187 29.0582 192.96 28.7982C193.734 28.5414 194.529 28.4121 195.346 28.4121C196.163 28.4121 196.954 28.5414 197.721 28.7982C198.488 29.0582 199.191 29.4215 199.828 29.8863C200.466 30.3536 201.025 30.9146 201.504 31.567C201.987 32.2217 202.347 32.9427 202.591 33.7314H188.101ZM206.504 31.3298C205.916 29.9021 205.034 28.6052 203.861 27.4422C201.479 25.0871 198.642 23.91 195.346 23.91C192.021 23.91 189.182 25.0871 186.832 27.4422C184.481 29.7989 183.306 32.6401 183.306 35.9722C183.306 39.3036 184.481 42.1472 186.832 44.5023C189.182 46.8566 192.021 48.0345 195.346 48.0345C198.37 48.0345 200.992 47.0575 203.215 45.105C203.246 45.0767 203.296 45.031 203.304 45.0231C203.499 44.86 203.664 44.6851 203.81 44.4652C204.527 43.3929 204.271 41.962 203.238 41.2686C202.366 40.6832 201.227 40.8172 200.46 41.516C200.388 41.5822 200.177 41.7792 200.141 41.8091C200.13 41.8178 200.12 41.8273 200.109 41.8359C199.443 42.3969 198.722 42.8193 197.947 43.1013C197.158 43.3889 196.293 43.5331 195.346 43.5331C194.514 43.5331 193.715 43.4039 192.948 43.1439C192.183 42.8854 191.479 42.5238 190.842 42.0573C190.204 41.5909 189.649 41.0315 189.176 40.3767C188.703 39.7243 188.343 39.0026 188.101 38.2123H205.128C205.758 38.2123 206.292 38.0003 206.729 37.5764C207.167 37.1533 207.386 36.6175 207.386 35.9722C207.386 34.3074 207.091 32.7599 206.504 31.3298Z" fill="#37AAF7"/>
<path fill-rule="evenodd" clip-rule="evenodd" d="M219.726 47.5335C219.029 47.5335 218.519 46.9851 218.519 46.2949C218.519 45.6149 219.029 45.0579 219.717 45.0579C220.406 45.0579 220.905 45.6149 220.905 46.3052C220.905 46.9851 220.406 47.5335 219.726 47.5335ZM219.717 44.7459C218.831 44.7459 218.123 45.4361 218.123 46.2949C218.123 47.175 218.831 47.8644 219.717 47.8644C220.613 47.8644 221.301 47.175 221.301 46.2949C221.301 45.4361 220.613 44.7459 219.717 44.7459Z" fill="#37AAF7"/>
<path fill-rule="evenodd" clip-rule="evenodd" d="M219.651 46.2298H219.481V45.7854C219.519 45.7759 219.585 45.7673 219.679 45.7673C219.905 45.7673 220.009 45.8618 220.009 46.0029C220.009 46.1636 219.849 46.2298 219.651 46.2298ZM220.075 46.3432V46.3243C220.263 46.2676 220.395 46.1352 220.395 45.965C220.395 45.8138 220.329 45.6908 220.245 45.6254C220.131 45.5593 220 45.5112 219.707 45.5112C219.452 45.5112 219.254 45.5309 219.113 45.5593V47.1091H219.471V46.4851H219.641C219.839 46.4851 219.934 46.5599 219.961 46.7301C220.009 46.9105 220.038 47.0516 220.084 47.1091H220.472C220.433 47.0516 220.406 46.957 220.358 46.7207C220.311 46.5134 220.226 46.4 220.075 46.3432Z" fill="#37AAF7"/>
<path fill-rule="evenodd" clip-rule="evenodd" d="M76.6016 20.9975C76.3918 20.8278 74.4315 19.3469 70.301 19.3469C69.2679 19.3469 68.1779 19.4411 67.0455 19.6274C66.2475 14.137 61.7236 11.4625 61.5131 11.3413L60.403 10.6996L59.6714 11.7549C59.6169 11.8334 58.3314 13.7077 57.7006 16.3755C56.9601 19.5084 57.4095 22.45 58.9988 24.9682C57.0795 26.0377 54.0158 26.3166 53.3798 26.3249H2.42133C1.09179 26.3249 0.00561009 27.4071 0.000384501 28.7376C-0.0197714 33.433 0.75287 37.9705 2.23395 41.8589C3.9905 46.4705 6.60329 49.8652 9.99844 51.9496C13.8064 54.2861 20.0062 55.6264 27.007 55.6264C30.2827 55.6264 33.5479 55.3302 36.4489 54.7693C41.0205 53.8867 45.1712 52.3767 48.7843 50.2833C51.9353 48.4577 54.7653 46.1354 57.196 43.3831C61.2339 38.8074 63.6391 33.697 65.4278 29.1744C65.6689 29.1841 65.9063 29.1886 66.1407 29.1886C70.5608 29.1886 73.2789 27.4191 74.7801 25.9337C76.4082 24.3227 76.9875 22.717 77.048 22.539L77.3645 21.6108L76.6016 20.9975Z" fill="#37AAF7"/>
<path fill-rule="evenodd" clip-rule="evenodd" d="M7.14538 24.8324H13.9745C14.3037 24.8324 14.5717 24.5647 14.5717 24.2334V18.1387C14.5717 17.8073 14.3037 17.5396 13.9745 17.5396H7.14538C6.81542 17.5396 6.54742 17.8073 6.54742 18.1387V24.2334C6.54742 24.5647 6.81542 24.8324 7.14538 24.8324Z" fill="#37AAF7"/>
<path fill-rule="evenodd" clip-rule="evenodd" d="M16.5555 24.8324H23.3831C23.7138 24.8324 23.9811 24.5647 23.9811 24.2334V18.1387C23.9811 17.8073 23.7138 17.5396 23.3831 17.5396H16.5555C16.2248 17.5396 15.9576 17.8073 15.9576 18.1387V24.2334C15.9576 24.5647 16.2248 24.8324 16.5555 24.8324Z" fill="#37AAF7"/>
<path fill-rule="evenodd" clip-rule="evenodd" d="M26.11 24.8324H32.9383C33.2683 24.8324 33.5363 24.5647 33.5363 24.2334V18.1387C33.5363 17.8073 33.2683 17.5396 32.9383 17.5396H26.11C25.78 17.5396 25.5128 17.8073 25.5128 18.1387V24.2334C25.5128 24.5647 25.78 24.8324 26.11 24.8324Z" fill="#37AAF7"/>
<path fill-rule="evenodd" clip-rule="evenodd" d="M35.5509 24.8324H42.3793C42.71 24.8324 42.9772 24.5647 42.9772 24.2334V18.1387C42.9772 17.8073 42.71 17.5396 42.3793 17.5396H35.5509C35.2217 17.5396 34.953 17.8073 34.953 18.1387V24.2334C34.953 24.5647 35.2217 24.8324 35.5509 24.8324Z" fill="#37AAF7"/>
<path fill-rule="evenodd" clip-rule="evenodd" d="M16.5555 16.0626H23.3831C23.7138 16.0626 23.9811 15.7949 23.9811 15.4643V9.36886C23.9811 9.03829 23.7138 8.76979 23.3831 8.76979H16.5555C16.2248 8.76979 15.9576 9.03829 15.9576 9.36886V15.4643C15.9576 15.7949 16.2248 16.0626 16.5555 16.0626Z" fill="#37AAF7"/>
<path fill-rule="evenodd" clip-rule="evenodd" d="M26.11 16.0626H32.9383C33.2683 16.0626 33.5363 15.7949 33.5363 15.4643V9.36886C33.5363 9.03829 33.2683 8.76979 32.9383 8.76979H26.11C25.78 8.76979 25.5128 9.03829 25.5128 9.36886V15.4643C25.5128 15.7949 25.78 16.0626 26.11 16.0626Z" fill="#37AAF7"/>
<path fill-rule="evenodd" clip-rule="evenodd" d="M35.5508 16.0623H42.3792C42.7099 16.0623 42.9772 15.7945 42.9772 15.464V9.36853C42.9772 9.03795 42.7099 8.76945 42.3792 8.76945H35.5508C35.2216 8.76945 34.9529 9.03795 34.9529 9.36853V15.464C34.9529 15.7945 35.2216 16.0623 35.5508 16.0623Z" fill="#37AAF7"/>
<path fill-rule="evenodd" clip-rule="evenodd" d="M35.5525 7.29284H42.3808C42.7115 7.29284 42.9788 7.02434 42.9788 6.69377V0.599073C42.9788 0.267751 42.7115 0 42.3808 0H35.5525C35.2232 0 34.9545 0.267751 34.9545 0.599073V6.69377C34.9545 7.02434 35.2232 7.29284 35.5525 7.29284Z" fill="#37AAF7"/>
<path fill-rule="evenodd" clip-rule="evenodd" d="M45.076 24.8324H51.9037C52.2344 24.8324 52.5016 24.5647 52.5016 24.2334V18.1387C52.5016 17.8073 52.2344 17.5396 51.9037 17.5396H45.076C44.7453 17.5396 44.4781 17.8073 44.4781 18.1387V24.2334C44.4781 24.5647 44.7453 24.8324 45.076 24.8324Z" fill="#37AAF7"/>
</svg>
