<svg width="76" height="45" viewBox="0 0 76 45" fill="none" xmlns="http://www.w3.org/2000/svg">
<path d="M21.1778 16.308C21.1778 17.2321 21.2777 17.9813 21.4525 18.5307C21.6523 19.0802 21.902 19.6795 22.2517 20.3289C22.3766 20.5286 22.4265 20.7284 22.4265 20.9033C22.4265 21.153 22.2767 21.4027 21.952 21.6525L20.3786 22.7014C20.1539 22.8512 19.9291 22.9262 19.7293 22.9262C19.4796 22.9262 19.2298 22.8013 18.9801 22.5765C18.6304 22.2019 18.3308 21.8023 18.081 21.4027C17.8313 20.9782 17.5815 20.5037 17.3068 19.9293C15.3589 22.2269 12.9114 23.3757 9.96446 23.3757C7.86665 23.3757 6.19339 22.7763 4.96966 21.5776C3.74593 20.3788 3.12158 18.7805 3.12158 16.7825C3.12158 14.6598 3.8708 12.9365 5.39422 11.6379C6.91763 10.3392 8.94053 9.68992 11.5129 9.68992C12.362 9.68992 13.2361 9.76484 14.1601 9.88971C15.0841 10.0146 16.0332 10.2144 17.0321 10.4391V8.61604C17.0321 6.71801 16.6325 5.39439 15.8583 4.62019C15.0592 3.846 13.7106 3.47139 11.7876 3.47139C10.9135 3.47139 10.0144 3.57128 9.09037 3.79605C8.16633 4.02082 7.26727 4.29553 6.39318 4.64517C5.99359 4.81999 5.69391 4.91988 5.51909 4.96983C5.34427 5.01978 5.2194 5.04475 5.1195 5.04475C4.76987 5.04475 4.59505 4.79501 4.59505 4.27056V3.04683C4.59505 2.64725 4.645 2.34756 4.76987 2.17274C4.89474 1.99792 5.1195 1.8231 5.46914 1.64829C6.34323 1.19875 7.39214 0.824143 8.61587 0.524454C9.83959 0.199792 11.1382 0.049948 12.5118 0.049948C15.4837 0.049948 17.6565 0.724246 19.055 2.07284C20.4286 3.42144 21.1279 5.46931 21.1279 8.21645V16.308H21.1778ZM11.0383 20.1041C11.8625 20.1041 12.7116 19.9542 13.6107 19.6546C14.5097 19.3549 15.3089 18.8054 15.9832 18.0562C16.3828 17.5817 16.6825 17.0573 16.8323 16.4579C16.9822 15.8585 17.0821 15.1343 17.0821 14.2851V13.2362C16.3578 13.0614 15.5836 12.9116 14.7844 12.8117C13.9853 12.7118 13.2111 12.6618 12.4369 12.6618C10.7636 12.6618 9.53991 12.9865 8.71576 13.6608C7.89162 14.3351 7.49204 15.2841 7.49204 16.5328C7.49204 17.7066 7.79172 18.5807 8.41607 19.18C9.01545 19.8044 9.88954 20.1041 11.0383 20.1041ZM31.0925 22.8013C30.643 22.8013 30.3433 22.7264 30.1435 22.5515C29.9437 22.4017 29.7689 22.0521 29.619 21.5776L23.7501 2.27264C23.6003 1.77316 23.5254 1.44849 23.5254 1.27367C23.5254 0.874091 23.7251 0.649324 24.1247 0.649324H26.5722C27.0467 0.649324 27.3714 0.724247 27.5462 0.899065C27.746 1.04891 27.8958 1.39855 28.0457 1.87305L32.2413 18.4059L36.1372 1.87305C36.2621 1.37357 36.412 1.04891 36.6117 0.899065C36.8115 0.749221 37.1612 0.649324 37.6107 0.649324H39.6086C40.0831 0.649324 40.4078 0.724247 40.6076 0.899065C40.8074 1.04891 40.9822 1.39855 41.0821 1.87305L45.028 18.6056L49.3485 1.87305C49.4983 1.37357 49.6732 1.04891 49.848 0.899065C50.0478 0.749221 50.3724 0.649324 50.822 0.649324H53.1445C53.5441 0.649324 53.7689 0.849117 53.7689 1.27367C53.7689 1.39855 53.7439 1.52342 53.7189 1.67326C53.694 1.8231 53.644 2.0229 53.5441 2.29761L47.5254 21.6025C47.3755 22.102 47.2007 22.4267 47.0009 22.5765C46.8011 22.7264 46.4765 22.8263 46.0519 22.8263H43.9042C43.4296 22.8263 43.105 22.7513 42.9052 22.5765C42.7054 22.4017 42.5306 22.077 42.4307 21.5776L38.5597 5.46931L34.7137 21.5526C34.5889 22.0521 34.439 22.3767 34.2392 22.5515C34.0394 22.7264 33.6898 22.8013 33.2403 22.8013H31.0925ZM63.1841 23.4756C61.8855 23.4756 60.5868 23.3257 59.3381 23.026C58.0894 22.7264 57.1154 22.4017 56.4661 22.0271C56.0665 21.8023 55.7918 21.5526 55.6919 21.3278C55.592 21.103 55.5421 20.8533 55.5421 20.6285V19.3549C55.5421 18.8304 55.7418 18.5807 56.1165 18.5807C56.2663 18.5807 56.4161 18.6056 56.566 18.6556C56.7158 18.7055 56.9406 18.8054 57.1903 18.9053C58.0395 19.2799 58.9635 19.5796 59.9375 19.7794C60.9364 19.9792 61.9104 20.0791 62.9094 20.0791C64.4828 20.0791 65.7065 19.8044 66.5556 19.255C67.4047 18.7055 67.8542 17.9064 67.8542 16.8824C67.8542 16.1832 67.6295 15.6088 67.1799 15.1343C66.7304 14.6598 65.8813 14.2352 64.6576 13.8356L61.0363 12.7118C59.2132 12.1374 57.8646 11.2883 57.0405 10.1644C56.2163 9.06557 55.7918 7.84184 55.7918 6.54319C55.7918 5.49428 56.0166 4.57025 56.4661 3.77108C56.9156 2.97191 57.515 2.27264 58.2642 1.72321C59.0134 1.1488 59.8626 0.724247 60.8615 0.424558C61.8605 0.12487 62.9094 0 64.0082 0C64.5577 0 65.1321 0.024974 65.6815 0.0998961C66.2559 0.174818 66.7804 0.274714 67.3048 0.37461C67.8043 0.49948 68.2788 0.62435 68.7283 0.774195C69.1779 0.924039 69.5275 1.07388 69.7772 1.22373C70.1269 1.42352 70.3766 1.62331 70.5265 1.84808C70.6763 2.04787 70.7512 2.32258 70.7512 2.67222V3.846C70.7512 4.37045 70.5514 4.64517 70.1768 4.64517C69.977 4.64517 69.6524 4.54527 69.2278 4.34548C67.8043 3.69615 66.206 3.37149 64.4328 3.37149C63.0093 3.37149 61.8855 3.59626 61.1113 4.07077C60.3371 4.54527 59.9375 5.26952 59.9375 6.29345C59.9375 6.99273 60.1872 7.5921 60.6867 8.06661C61.1862 8.54112 62.1102 9.01562 63.4338 9.44018L66.9801 10.564C68.7783 11.1384 70.0769 11.9376 70.8511 12.9615C71.6253 13.9855 71.9999 15.1592 71.9999 16.4579C71.9999 17.5318 71.7752 18.5057 71.3506 19.3549C70.9011 20.204 70.3017 20.9532 69.5275 21.5526C68.7533 22.1769 67.8293 22.6265 66.7554 22.9511C65.6316 23.3008 64.4578 23.4756 63.1841 23.4756Z" fill="#252F3E"/>
<path fill-rule="evenodd" clip-rule="evenodd" d="M67.9045 35.6131C59.688 41.6818 47.7504 44.9034 37.4861 44.9034C23.1011 44.9034 10.1396 39.584 0.349748 30.7432C-0.424447 30.0439 0.274826 29.0949 1.19886 29.6443C11.7878 35.7879 24.8493 39.5091 38.3602 39.5091C47.4757 39.5091 57.4903 37.611 66.7057 33.7151C68.0793 33.0907 69.2531 34.6141 67.9045 35.6131Z" fill="#FF9900"/>
<path fill-rule="evenodd" clip-rule="evenodd" d="M71.3258 31.7172C70.2769 30.3686 64.3831 31.0679 61.7108 31.3925C60.9117 31.4924 60.7868 30.7932 61.511 30.2687C66.2062 26.9721 73.9231 27.9212 74.8222 29.02C75.7213 30.1438 74.5725 37.8608 70.177 41.557C69.5027 42.1314 68.8534 41.8317 69.1531 41.0825C70.1521 38.61 72.3748 33.0408 71.3258 31.7172Z" fill="#FF9900"/>
</svg>
