<svg width="34" height="34" viewBox="0 0 34 34" fill="none" xmlns="http://www.w3.org/2000/svg">
<path fill-rule="evenodd" clip-rule="evenodd" d="M30.595 30.5993H3.40007V11.8993H30.5984L30.595 30.5993ZM30.6 5.1H28.9V0H25.5V8.5H23.8V5.1H11.9V0H8.5V8.5H6.8V5.1H3.4C1.5249 5.1 0 6.6266 0 8.5V30.6C0 32.4751 1.5249 34 3.4 34H30.6C32.4751 34 34 32.4751 34 30.6V8.5C34 6.6266 32.4751 5.1 30.6 5.1V5.1Z" fill="#00B2FF"/>
<path fill-rule="evenodd" clip-rule="evenodd" d="M13.5999 22.0986H6.79993V15.2986H13.5999V22.0986Z" fill="#00B2FF"/>
<path fill-rule="evenodd" clip-rule="evenodd" d="M22.0997 22.0986H15.2997V15.2986H22.0997V22.0986Z" fill="#00B2FF"/>
</svg>
