<svg width="424" height="184" viewBox="0 0 424 184" fill="none" xmlns="http://www.w3.org/2000/svg">
<path d="M193.547 19.6787C193.547 8.9388 202.253 0.232422 212.993 0.232422H300.501L344.255 43.0143V164.554C344.255 175.293 335.549 184 324.809 184H212.993C202.253 184 193.547 175.293 193.547 164.554V19.6787Z" fill="url(#paint0_linear)"/>
<mask id="mask0" mask-type="alpha" maskUnits="userSpaceOnUse" x="193" y="0" width="152" height="184">
<path d="M193.547 19.6787C193.547 8.9388 202.253 0.232422 212.993 0.232422H300.501L344.255 43.0143V164.554C344.255 175.293 335.549 184 324.809 184H212.993C202.253 184 193.547 175.293 193.547 164.554V19.6787Z" fill="#C4C4C4"/>
</mask>
<g mask="url(#mask0)">
<path d="M300.501 -121.307C300.501 -132.047 309.207 -140.753 319.947 -140.753H410.373L451.21 -100.888V23.5682C451.21 34.3081 442.503 43.0145 431.764 43.0145H319.947C309.207 43.0145 300.501 34.3081 300.501 23.5682V-121.307Z" fill="#1895B0"/>
</g>
<path d="M251.164 153.018L255.479 143.674H260.151L253.343 156.892V164.412H248.999V156.892L242.191 143.674H246.877L251.164 153.018ZM273.561 160.139H266.069L264.645 164.412H260.102L267.821 143.674H271.781L279.543 164.412H275L273.561 160.139ZM267.223 156.678H272.408L269.801 148.916L267.223 156.678ZM289.008 143.674L294.335 158.715L299.633 143.674H305.245V164.412H300.958V158.743L301.385 148.958L295.788 164.412H292.854L287.27 148.973L287.698 158.743V164.412H283.425V143.674H289.008ZM315.194 160.979H324.267V164.412H310.921V143.674H315.194V160.979Z" fill="white"/>
<path d="M176.906 63.8637L163.835 50.793V76.9344L176.906 63.8637Z" fill="#D7DADE"/>
<path d="M176.906 103.729L163.835 90.6578V116.799L176.906 103.729Z" fill="#D7DADE"/>
<path d="M176.906 143.593L163.835 130.523V156.664L176.906 143.593Z" fill="#D7DADE"/>
<path fill-rule="evenodd" clip-rule="evenodd" d="M378.773 55.2053L423.462 99.8948L378.773 144.584V128.578H363.702V71.2115H378.773V55.2053Z" fill="url(#paint1_linear)"/>
<path d="M0 61.2063C0 57.9766 2.61819 55.3584 5.84789 55.3584H17.5437C20.7734 55.3584 23.3916 57.9766 23.3916 61.2063V71.7325C23.3916 74.9622 20.7734 77.5804 17.5437 77.5804H5.84789C2.61819 77.5804 0 74.9622 0 71.7325L0 61.2063Z" fill="#A5B1BA"/>
<path d="M0 102.34C0 99.1099 2.61819 96.4917 5.84789 96.4917H17.5437C20.7734 96.4917 23.3916 99.1099 23.3916 102.34V112.866C23.3916 116.095 20.7734 118.714 17.5437 118.714H5.84789C2.61819 118.714 0 116.095 0 112.866L0 102.34Z" fill="#A5B1BA"/>
<path d="M0 142.204C0 138.975 2.61819 136.357 5.84789 136.357H17.5437C20.7734 136.357 23.3916 138.975 23.3916 142.204V152.731C23.3916 155.96 20.7734 158.579 17.5437 158.579H5.84789C2.61819 158.579 0 155.96 0 152.731L0 142.204Z" fill="#A5B1BA"/>
<path fill-rule="evenodd" clip-rule="evenodd" d="M27.2808 151.736C28.2169 152.025 29.1901 152.292 30.1915 152.526C35.0804 153.67 40.9837 154.112 46.6136 152.236C49.2571 151.355 51.9917 149.987 54.6059 148.679L54.6066 148.679C55.2332 148.365 55.8528 148.055 56.4627 147.756C59.7599 146.14 63.1242 144.646 66.8903 143.771C74.1742 142.077 83.6207 142.546 97.118 150.875C100.248 152.847 105.643 153.895 111.372 153.678C117.281 153.454 124.187 151.871 130.478 147.898C136.68 143.981 143.477 143.075 149.343 143.634C155.361 144.207 159.868 146.261 161.458 147.599C163.024 148.918 165.363 148.718 166.682 147.151C168.001 145.585 167.801 143.246 166.235 141.927C163.127 139.31 157.005 136.914 150.046 136.252C142.934 135.574 134.406 136.646 126.518 141.628C121.536 144.774 115.959 146.083 111.091 146.268C106.054 146.458 102.388 145.435 101.066 144.597L101.048 144.586L101.03 144.575C86.1083 135.362 74.6716 134.348 65.2111 136.548C60.6035 137.619 56.6293 139.416 53.1983 141.098C52.4434 141.468 51.7275 141.825 51.0427 142.167C48.4855 143.443 46.3629 144.502 44.2685 145.201C40.4062 146.488 36.0099 146.271 31.8804 145.305C30.227 144.919 28.6714 144.425 27.2808 143.899V151.736Z" fill="#D7DADE"/>
<path fill-rule="evenodd" clip-rule="evenodd" d="M27.2808 112.17C28.2169 112.46 29.1901 112.727 30.1915 112.961C35.0804 114.105 40.9837 114.547 46.6136 112.67C49.2571 111.789 51.9917 110.421 54.6059 109.114L54.6066 109.113C55.2332 108.8 55.8528 108.49 56.4627 108.191C59.7599 106.575 63.1242 105.081 66.8903 104.205C74.1742 102.512 83.6207 102.98 97.118 111.31C100.248 113.282 105.643 114.33 111.372 114.113C117.281 113.889 124.187 112.305 130.478 108.333C136.68 104.416 143.477 103.51 149.343 104.069C155.361 104.642 159.868 106.696 161.458 108.034C163.024 109.353 165.363 109.153 166.682 107.586C168.001 106.02 167.801 103.681 166.235 102.362C163.127 99.7448 157.005 97.3492 150.046 96.6864C142.934 96.0091 134.406 97.081 126.518 102.063C121.536 105.209 115.959 106.518 111.091 106.702C106.054 106.893 102.388 105.869 101.066 105.032L101.048 105.021L101.03 105.009C86.1083 95.7969 74.6716 94.7829 65.2111 96.9822C60.6035 98.0533 56.6293 99.8504 53.1983 101.532C52.4434 101.902 51.7275 102.26 51.0427 102.602C48.4855 103.878 46.3629 104.937 44.2685 105.635C40.4062 106.923 36.0099 106.706 31.8804 105.74C30.227 105.353 28.6714 104.859 27.2808 104.333V112.17Z" fill="#D7DADE"/>
<path fill-rule="evenodd" clip-rule="evenodd" d="M27.2808 72.1704C28.2169 72.4599 29.1901 72.7268 30.1915 72.961C35.0804 74.1045 40.9837 74.5471 46.6136 72.6704C49.2571 71.7893 51.9917 70.4214 54.6059 69.1138L54.6066 69.1134C55.2332 68.8 55.8528 68.49 56.4627 68.191C59.7599 66.5746 63.1242 65.0809 66.8903 64.2054C74.1742 62.5121 83.6207 62.9805 97.118 71.3096C100.248 73.282 105.643 74.3296 111.372 74.1127C117.281 73.8889 124.187 72.3054 130.478 68.3327C136.68 64.4158 143.477 63.5101 149.343 64.0688C155.361 64.6419 159.868 66.6956 161.458 68.034C163.024 69.353 165.363 69.1525 166.682 67.5861C168.001 66.0197 167.801 63.6806 166.235 62.3616C163.127 59.7448 157.005 57.3492 150.046 56.6864C142.934 56.0091 134.406 57.081 126.518 62.0628C121.536 65.2091 115.959 66.5179 111.091 66.7022C106.054 66.893 102.388 65.8694 101.066 65.0319L101.048 65.0206L101.03 65.0094C86.1083 55.7969 74.6716 54.7829 65.2111 56.9822C60.6035 58.0533 56.6293 59.8504 53.1983 61.5324C52.4434 61.9025 51.7275 62.2598 51.0427 62.6015C48.4855 63.8778 46.3629 64.9371 44.2685 65.6352C40.4062 66.9227 36.0099 66.706 31.8804 65.7401C30.227 65.3534 28.6714 64.8593 27.2808 64.3334V72.1704Z" fill="#D7DADE"/>
<defs>
<linearGradient id="paint0_linear" x1="268.901" y1="0.232422" x2="268.901" y2="184" gradientUnits="userSpaceOnUse">
<stop stop-color="#0FB2D6"/>
<stop offset="1" stop-color="#0FD3CB"/>
</linearGradient>
<linearGradient id="paint1_linear" x1="393.582" y1="55.2053" x2="393.582" y2="144.584" gradientUnits="userSpaceOnUse">
<stop stop-color="#0FB2D6"/>
<stop offset="1" stop-color="#0FD3CB"/>
</linearGradient>
</defs>
</svg>
