<svg width="39" height="39" viewBox="0 0 39 39" fill="none" xmlns="http://www.w3.org/2000/svg">
<path fill-rule="evenodd" clip-rule="evenodd" d="M14.625 37.375H17.875V39H21.125V37.375H24.375V34.125H14.625V37.375Z" fill="#FFC634"/>
<path fill-rule="evenodd" clip-rule="evenodd" d="M19.5 8.125C13.2291 8.125 8.125 13.2275 8.125 19.5C8.125 23.9102 10.6958 27.9013 14.625 29.7684V30.875C14.625 31.772 15.353 32.5 16.25 32.5H22.75C23.6486 32.5 24.375 31.772 24.375 30.875V29.7684C28.3059 27.9013 30.875 23.9102 30.875 19.5C30.875 13.2275 25.7725 8.125 19.5 8.125" fill="#FFC634"/>
<path fill-rule="evenodd" clip-rule="evenodd" d="M21.125 0H17.875V6.5H21.125V0Z" fill="#FFC634"/>
<path fill-rule="evenodd" clip-rule="evenodd" d="M0 21.125H6.5V17.875H0V21.125Z" fill="#FFC634"/>
<path fill-rule="evenodd" clip-rule="evenodd" d="M32.5 21.125H39V17.875H32.5V21.125Z" fill="#FFC634"/>
<path fill-rule="evenodd" clip-rule="evenodd" d="M34.7978 5.54775L32.5 3.25L27.625 8.125L29.9228 10.4228L34.7978 5.54775Z" fill="#FFC634"/>
<path fill-rule="evenodd" clip-rule="evenodd" d="M10.4228 8.125L5.54775 3.25L3.25 5.54775L8.125 10.4228L10.4228 8.125Z" fill="#FFC634"/>
</svg>
