<svg width="37" height="26" viewBox="0 0 37 26" fill="none" xmlns="http://www.w3.org/2000/svg">
<path fill-rule="evenodd" clip-rule="evenodd" d="M35.8042 9.81424C35.7061 9.73489 34.7898 9.04273 32.8592 9.04273C32.3763 9.04273 31.8669 9.08677 31.3376 9.17382C30.9646 6.60757 28.8501 5.35748 28.7517 5.30085L28.2328 5.00092L27.8909 5.49417C27.8654 5.53087 27.2646 6.40692 26.9697 7.65386C26.6236 9.11824 26.8336 10.4931 27.5765 11.6701C26.6794 12.17 25.2474 12.3004 24.9501 12.3043H1.13175C0.510309 12.3043 0.0026222 12.8101 0.000179719 13.432C-0.00924128 15.6267 0.351897 17.7476 1.04417 19.565C1.86519 21.7205 3.08643 23.3072 4.67335 24.2815C6.45322 25.3736 9.35105 26 12.6233 26C14.1544 26 15.6806 25.8616 17.0365 25.5994C19.1733 25.1869 21.1133 24.4811 22.8021 23.5026C24.275 22.6493 25.5977 21.5639 26.7338 20.2774C28.6212 18.1387 29.7454 15.7501 30.5814 13.6362C30.6941 13.6407 30.8051 13.6428 30.9147 13.6428C32.9807 13.6428 34.2511 12.8157 34.9528 12.1215C35.7138 11.3685 35.9846 10.6179 36.0128 10.5347L36.1608 10.1009L35.8042 9.81424Z" fill="#37AAF7"/>
<path fill-rule="evenodd" clip-rule="evenodd" d="M3.33973 11.6071H6.53171C6.68558 11.6071 6.81085 11.4819 6.81085 11.3271V8.47838C6.81085 8.32351 6.68558 8.19836 6.53171 8.19836H3.33973C3.18551 8.19836 3.06024 8.32351 3.06024 8.47838V11.3271C3.06024 11.4819 3.18551 11.6071 3.33973 11.6071Z" fill="#37AAF7"/>
<path fill-rule="evenodd" clip-rule="evenodd" d="M7.73817 11.6071H10.9294C11.084 11.6071 11.2089 11.4819 11.2089 11.3271V8.47838C11.2089 8.32351 11.084 8.19836 10.9294 8.19836H7.73817C7.58359 8.19836 7.45868 8.32351 7.45868 8.47838V11.3271C7.45868 11.4819 7.58359 11.6071 7.73817 11.6071Z" fill="#37AAF7"/>
<path fill-rule="evenodd" clip-rule="evenodd" d="M12.204 11.6071H15.3956C15.5499 11.6071 15.6751 11.4819 15.6751 11.3271V8.47838C15.6751 8.32351 15.5499 8.19836 15.3956 8.19836H12.204C12.0498 8.19836 11.9249 8.32351 11.9249 8.47838V11.3271C11.9249 11.4819 12.0498 11.6071 12.204 11.6071Z" fill="#37AAF7"/>
<path fill-rule="evenodd" clip-rule="evenodd" d="M16.6167 11.6071H19.8083C19.9629 11.6071 20.0878 11.4819 20.0878 11.3271V8.47838C20.0878 8.32351 19.9629 8.19836 19.8083 8.19836H16.6167C16.4628 8.19836 16.3372 8.32351 16.3372 8.47838V11.3271C16.3372 11.4819 16.4628 11.6071 16.6167 11.6071Z" fill="#37AAF7"/>
<path fill-rule="evenodd" clip-rule="evenodd" d="M7.73817 7.50767H10.9294C11.084 7.50767 11.2089 7.38252 11.2089 7.228V4.37895C11.2089 4.22444 11.084 4.09894 10.9294 4.09894H7.73817C7.58359 4.09894 7.45868 4.22444 7.45868 4.37895V7.228C7.45868 7.38252 7.58359 7.50767 7.73817 7.50767Z" fill="#37AAF7"/>
<path fill-rule="evenodd" clip-rule="evenodd" d="M12.204 7.50767H15.3956C15.5499 7.50767 15.6751 7.38252 15.6751 7.228V4.37895C15.6751 4.22444 15.5499 4.09894 15.3956 4.09894H12.204C12.0498 4.09894 11.9249 4.22444 11.9249 4.37895V7.228C11.9249 7.38252 12.0498 7.50767 12.204 7.50767Z" fill="#37AAF7"/>
<path fill-rule="evenodd" clip-rule="evenodd" d="M16.6168 7.50767H19.8084C19.963 7.50767 20.0879 7.38252 20.0879 7.228V4.37895C20.0879 4.22444 19.963 4.09894 19.8084 4.09894H16.6168C16.4629 4.09894 16.3373 4.22444 16.3373 4.37895V7.228C16.3373 7.38252 16.4629 7.50767 16.6168 7.50767Z" fill="#37AAF7"/>
<path fill-rule="evenodd" clip-rule="evenodd" d="M16.6181 3.40873H19.8097C19.9643 3.40873 20.0892 3.28323 20.0892 3.12872V0.280011C20.0892 0.125149 19.9643 0 19.8097 0H16.6181C16.4642 0 16.3386 0.125149 16.3386 0.280011V3.12872C16.3386 3.28323 16.4642 3.40873 16.6181 3.40873Z" fill="#37AAF7"/>
<path fill-rule="evenodd" clip-rule="evenodd" d="M21.0689 11.6071H24.2601C24.4147 11.6071 24.5396 11.4819 24.5396 11.3271V8.47838C24.5396 8.32351 24.4147 8.19836 24.2601 8.19836H21.0689C20.9143 8.19836 20.7894 8.32351 20.7894 8.47838V11.3271C20.7894 11.4819 20.9143 11.6071 21.0689 11.6071Z" fill="#37AAF7"/>
</svg>
