<svg width="38" height="25" viewBox="0 0 38 25" fill="none" xmlns="http://www.w3.org/2000/svg">
<path fill-rule="evenodd" clip-rule="evenodd" d="M4.4842 0.279297H33.7895C35.1673 0.279297 36.3696 1.0435 36.9949 2.1704L18.8949 13.9908L1.29966 2.13318C1.93064 1.0267 3.1216 0.279297 4.4842 0.279297ZM0.821045 4.78092V20.4267C0.821045 21.2471 1.09199 22.0053 1.54912 22.6165L12.5468 12.6831L0.821045 4.78092ZM4.4842 24.0898C3.95122 24.0898 3.44449 23.9755 2.98727 23.77L14.1019 13.731L18.8735 16.9467L24.2336 13.4463L24.0216 13.6809L35.2226 23.7979C34.7822 23.9858 34.2978 24.0898 33.7895 24.0898H4.4842ZM36.6859 22.6672C37.1664 22.0474 37.4526 21.2699 37.4526 20.4267V4.8134L25.5356 12.5959L36.6859 22.6672Z" fill="#FFE34F"/>
</svg>
