<svg width="29" height="29" viewBox="0 0 29 29" fill="none" xmlns="http://www.w3.org/2000/svg">
<path d="M6.51423 17.9885C6.51423 19.6344 5.16971 20.9789 3.52384 20.9789C1.87796 20.9789 0.533447 19.6344 0.533447 17.9885C0.533447 16.3427 1.87796 14.9982 3.52384 14.9982H6.51423V17.9885Z" fill="#E01E5A"/>
<path d="M8.02098 17.9887C8.02098 16.3428 9.3655 14.9983 11.0114 14.9983C12.6572 14.9983 14.0018 16.3428 14.0018 17.9887V25.4763C14.0018 27.1222 12.6572 28.4667 11.0114 28.4667C9.3655 28.4667 8.02098 27.1222 8.02098 25.4763V17.9887Z" fill="#E01E5A"/>
<path d="M11.0114 5.98078C9.3655 5.98078 8.02098 4.63627 8.02098 2.99039C8.02098 1.34452 9.3655 0 11.0114 0C12.6572 0 14.0018 1.34452 14.0018 2.99039V5.98078H11.0114Z" fill="#36C5F0"/>
<path d="M11.0114 7.48753C12.6573 7.48753 14.0018 8.83205 14.0018 10.4779C14.0018 12.1238 12.6573 13.4683 11.0114 13.4683H3.52384C1.87796 13.4683 0.533447 12.1238 0.533447 10.4779C0.533447 8.83205 1.87796 7.48753 3.52384 7.48753H11.0114Z" fill="#36C5F0"/>
<path d="M23.0192 10.4781C23.0192 8.83225 24.3637 7.48773 26.0096 7.48773C27.6555 7.48773 29 8.83225 29 10.4781C29 12.124 27.6555 13.4685 26.0096 13.4685H23.0192V10.4781Z" fill="#2EB67D"/>
<path d="M21.5125 10.478C21.5125 12.1238 20.168 13.4684 18.5221 13.4684C16.8763 13.4684 15.5318 12.1238 15.5318 10.478V2.99039C15.5318 1.34452 16.8763 0 18.5221 0C20.168 0 21.5125 1.34452 21.5125 2.99039V10.478Z" fill="#2EB67D"/>
<path d="M18.5221 22.4859C20.168 22.4859 21.5125 23.8304 21.5125 25.4762C21.5125 27.1221 20.168 28.4666 18.5221 28.4666C16.8762 28.4666 15.5317 27.1221 15.5317 25.4762V22.4859H18.5221Z" fill="#ECB22E"/>
<path d="M18.5224 20.9789C16.8765 20.9789 15.532 19.6344 15.532 17.9885C15.532 16.3427 16.8765 14.9981 18.5224 14.9981H26.0099C27.6558 14.9981 29.0003 16.3427 29.0003 17.9885C29.0003 19.6344 27.6558 20.9789 26.0099 20.9789H18.5224Z" fill="#ECB22E"/>
</svg>
