<svg width="316" height="208" viewBox="0 0 316 208" fill="none" xmlns="http://www.w3.org/2000/svg">
<path fill-rule="evenodd" clip-rule="evenodd" d="M97.0446 94.97C99.0828 93.7889 101.395 93.1666 103.75 93.1666C106.105 93.1666 108.418 93.7889 110.456 94.97C110.458 94.9712 110.46 94.9723 110.462 94.9735L147.489 116.235C149.527 117.417 151.218 119.116 152.393 121.159C153.569 123.203 154.188 125.52 154.191 127.878L154.191 127.881V170.404L154.191 170.407C154.188 172.766 153.569 175.083 152.393 177.126C151.218 179.17 149.527 180.869 147.489 182.051L147.479 182.057L110.462 203.312C110.46 203.313 110.457 203.315 110.455 203.316C108.417 204.497 106.105 205.119 103.75 205.119C101.396 205.119 99.0833 204.497 97.0452 203.316C97.043 203.315 97.0409 203.313 97.0387 203.312L60.0219 182.057L60.0109 182.051C57.9734 180.869 56.2827 179.17 55.1072 177.126C53.9317 175.083 53.3122 172.766 53.3098 170.407V127.878C53.3122 125.52 53.9317 123.203 55.1072 121.159C56.2827 119.116 57.9734 117.417 60.0109 116.235L60.0219 116.229L97.0387 94.9735C97.0407 94.9723 97.0427 94.9712 97.0446 94.97ZM103.75 98.8333C102.393 98.8333 101.059 99.1922 99.8823 99.875L99.8714 99.8813L62.8546 121.136C62.8529 121.137 62.8512 121.138 62.8496 121.139C61.676 121.821 60.6995 122.802 60.0191 123.985C59.338 125.169 58.978 126.513 58.9764 127.883V170.403C58.978 171.772 59.338 173.117 60.0191 174.301C60.6996 175.484 61.6763 176.465 62.8501 177.147C62.8516 177.147 62.8531 177.148 62.8546 177.149L99.8824 198.411C101.059 199.093 102.393 199.452 103.75 199.452C105.107 199.452 106.441 199.093 107.618 198.411L107.629 198.404L144.646 177.149C144.647 177.148 144.649 177.147 144.651 177.146C145.824 176.464 146.801 175.484 147.481 174.301C148.163 173.116 148.523 171.771 148.524 170.401V127.884C148.523 126.514 148.163 125.169 147.481 123.985C146.801 122.802 145.825 121.822 144.651 121.14C144.649 121.139 144.648 121.137 144.646 121.136L107.618 99.875C106.441 99.1922 105.107 98.8333 103.75 98.8333Z" fill="url(#paint0_linear)"/>
<path fill-rule="evenodd" clip-rule="evenodd" d="M151.295 1.97002C153.333 0.788929 155.645 0.166626 158 0.166626C160.355 0.166626 162.668 0.788929 164.706 1.97002C164.708 1.97116 164.71 1.97231 164.712 1.97345L201.739 23.2349C203.777 24.417 205.468 26.1157 206.643 28.1593C207.819 30.2028 208.438 32.52 208.441 34.8784L208.441 34.8813V77.4043L208.441 77.4072C208.438 79.7656 207.819 82.0828 206.643 84.1263C205.468 86.1698 203.777 87.8686 201.739 89.0506L201.729 89.057L164.712 110.312C164.71 110.313 164.707 110.315 164.705 110.316C162.667 111.497 160.355 112.119 158 112.119C155.646 112.119 153.333 111.497 151.295 110.316C151.293 110.315 151.291 110.313 151.289 110.312L114.272 89.057L114.261 89.0506C112.223 87.8686 110.533 86.1698 109.357 84.1263C108.182 82.0828 107.562 79.7656 107.56 77.4072V34.8784C107.562 32.5199 108.182 30.2028 109.357 28.1593C110.533 26.1157 112.223 24.417 114.261 23.2349L114.272 23.2286L151.289 1.97345C151.291 1.97231 151.293 1.97116 151.295 1.97002ZM158 5.83329C156.643 5.83329 155.309 6.1922 154.132 6.87497L154.121 6.88129L117.105 28.1365C117.103 28.1374 117.101 28.1384 117.1 28.1394C115.926 28.8214 114.949 29.8022 114.269 30.9849C113.588 32.169 113.228 33.5133 113.226 34.8829V77.4027C113.228 78.7723 113.588 80.1166 114.269 81.3007C114.95 82.4836 115.926 83.4645 117.1 84.1465C117.102 84.1474 117.103 84.1483 117.105 84.1491L154.132 105.411C155.309 106.093 156.643 106.452 158 106.452C159.357 106.452 160.691 106.093 161.868 105.411L161.879 105.404L198.896 84.1491C198.897 84.1482 198.899 84.1473 198.901 84.1464C200.074 83.4643 201.051 82.4835 201.731 81.3007C202.413 80.1162 202.773 78.7714 202.774 77.4014V34.8842C202.773 33.5142 202.413 32.1694 201.731 30.9849C201.051 29.8023 200.075 28.8216 198.901 28.1395C198.899 28.1385 198.898 28.1375 198.896 28.1365L161.868 6.87499C160.691 6.19222 159.357 5.83329 158 5.83329Z" fill="url(#paint1_linear)"/>
<path fill-rule="evenodd" clip-rule="evenodd" d="M50.6071 0.166626C48.2523 0.166626 45.9398 0.788929 43.9016 1.97002L43.8956 1.97345L6.87882 23.2286L6.86788 23.2349C4.83035 24.417 3.13967 26.1157 1.96412 28.1593C0.788616 30.2028 0.169095 32.52 0.166687 34.8784V77.4072C0.169095 79.7656 0.788617 82.0828 1.96412 84.1263C3.13967 86.1698 4.83034 87.8686 6.86788 89.0506L6.87883 89.057L43.8956 110.312L43.9021 110.316C45.9402 111.497 48.2525 112.119 50.6071 112.119C52.9617 112.119 55.2741 111.497 57.3122 110.316L57.3186 110.312L94.3354 89.057L94.3464 89.0506C96.3839 87.8686 98.0746 86.1698 99.2502 84.1263C100.426 82.0828 101.045 79.7656 101.048 77.4072L101.048 77.4043V34.8813L101.048 34.8784C101.045 32.52 100.426 30.2028 99.2502 28.1593C98.0746 26.1157 96.3839 24.417 94.3464 23.2349L57.3186 1.97345L57.3127 1.97002C55.2745 0.788929 52.9619 0.166626 50.6071 0.166626Z" fill="url(#paint2_linear)"/>
<path fill-rule="evenodd" clip-rule="evenodd" d="M258.687 1.97002C260.726 0.788929 263.038 0.166626 265.393 0.166626C267.748 0.166626 270.06 0.788929 272.099 1.97002C272.101 1.97116 272.103 1.97231 272.105 1.97345L309.132 23.2349C311.17 24.417 312.86 26.1157 314.036 28.1593C315.212 30.2028 315.831 32.52 315.833 34.8784L315.833 34.8813V77.4043L315.833 77.4072C315.831 79.7656 315.212 82.0828 314.036 84.1263C312.86 86.1698 311.17 87.8686 309.132 89.0506L309.121 89.057L272.105 110.312C272.102 110.313 272.1 110.315 272.098 110.316C270.06 111.497 267.748 112.119 265.393 112.119C263.038 112.119 260.726 111.497 258.688 110.316C258.686 110.315 258.684 110.313 258.682 110.312L221.665 89.057L221.654 89.0506C219.616 87.8686 217.926 86.1698 216.75 84.1263C215.575 82.0828 214.955 79.7656 214.953 77.4072V34.8784C214.955 32.5199 215.575 30.2028 216.75 28.1593C217.926 26.1157 219.616 24.417 221.654 23.2349L221.665 23.2286L258.682 1.97345C258.684 1.97231 258.685 1.97116 258.687 1.97002ZM265.393 5.83329C264.036 5.83329 262.702 6.1922 261.525 6.87497L261.514 6.88129L224.497 28.1365C224.496 28.1374 224.494 28.1384 224.492 28.1394C223.319 28.8214 222.342 29.8022 221.662 30.9849C220.981 32.169 220.621 33.5133 220.619 34.8829V77.4027C220.621 78.7723 220.981 80.1166 221.662 81.3007C222.342 82.4836 223.319 83.4645 224.493 84.1465C224.494 84.1474 224.496 84.1483 224.497 84.1491L261.525 105.411C262.702 106.093 264.036 106.452 265.393 106.452C266.75 106.452 268.084 106.093 269.261 105.411L269.272 105.404L306.289 84.1491C306.29 84.1482 306.292 84.1473 306.293 84.1464C307.467 83.4643 308.444 82.4835 309.124 81.3007C309.805 80.1162 310.165 78.7714 310.167 77.4014V34.8842C310.165 33.5142 309.805 32.1694 309.124 30.9849C308.444 29.8023 307.467 28.8216 306.294 28.1395C306.292 28.1385 306.29 28.1375 306.289 28.1365L269.261 6.87499C268.084 6.19222 266.75 5.83329 265.393 5.83329Z" fill="url(#paint3_linear)"/>
<path fill-rule="evenodd" clip-rule="evenodd" d="M205.544 97.1844C207.583 96.0033 209.895 95.381 212.25 95.381C214.605 95.381 216.917 96.0033 218.956 97.1844C218.958 97.1855 218.959 97.1867 218.961 97.1878L255.989 118.449C258.027 119.631 259.717 121.33 260.893 123.374C262.068 125.417 262.688 127.734 262.69 130.093L262.69 130.096V172.619L262.69 172.622C262.688 174.98 262.068 177.297 260.893 179.341C259.717 181.384 258.027 183.083 255.989 184.265L255.978 184.271L218.961 205.526C218.959 205.528 218.957 205.529 218.955 205.53C216.917 206.711 214.605 207.333 212.25 207.333C209.895 207.333 207.583 206.711 205.545 205.53C205.543 205.529 205.541 205.528 205.538 205.526L168.522 184.271L168.511 184.265C166.473 183.083 164.782 181.384 163.607 179.341C162.431 177.297 161.812 174.98 161.81 172.622V130.093C161.812 127.734 162.431 125.417 163.607 123.374C164.782 121.33 166.473 119.631 168.511 118.449L168.522 118.443L205.538 97.1878C205.54 97.1867 205.542 97.1855 205.544 97.1844ZM212.25 101.048C210.893 101.048 209.559 101.407 208.382 102.089L208.371 102.096L171.354 123.351C171.353 123.352 171.351 123.353 171.349 123.354C170.176 124.036 169.199 125.017 168.519 126.199C167.838 127.383 167.478 128.728 167.476 130.097V172.617C167.478 173.987 167.838 175.331 168.519 176.515C169.199 177.698 170.176 178.679 171.35 179.361C171.351 179.362 171.353 179.363 171.354 179.363L208.382 200.625C209.559 201.308 210.893 201.667 212.25 201.667C213.607 201.667 214.941 201.308 216.118 200.625L216.129 200.619L253.146 179.363C253.147 179.363 253.149 179.362 253.15 179.361C254.324 178.679 255.301 177.698 255.981 176.515C256.662 175.331 257.022 173.986 257.024 172.616V130.099C257.022 128.729 256.662 127.384 255.981 126.199C255.301 125.017 254.324 124.036 253.151 123.354C253.149 123.353 253.147 123.352 253.146 123.351L216.118 102.089C214.941 101.407 213.607 101.048 212.25 101.048Z" fill="url(#paint4_linear)"/>
<path d="M132.535 161.988V136.297C132.534 135.171 132.238 134.065 131.677 133.09C131.115 132.115 130.308 131.305 129.337 130.742L106.948 117.896C105.976 117.332 104.872 117.036 103.75 117.036C102.627 117.036 101.524 117.332 100.551 117.896L78.1623 130.742C77.1908 131.305 76.3839 132.115 75.8225 133.09C75.2612 134.065 74.965 135.171 74.9639 136.297V161.988C74.965 163.115 75.2612 164.221 75.8225 165.196C76.3839 166.171 77.1908 166.981 78.1623 167.544L100.551 180.389C101.524 180.953 102.627 181.25 103.75 181.25C104.872 181.25 105.976 180.953 106.948 180.389L129.337 167.544C130.308 166.981 131.115 166.171 131.677 165.196C132.238 164.221 132.534 163.115 132.535 161.988Z" fill="#11EBE2" fill-opacity="0.6"/>
<path d="M186.785 68.9883V43.2973C186.784 42.171 186.488 41.0648 185.927 40.0897C185.365 39.1145 184.558 38.3048 183.587 37.7416L161.198 24.8961C160.226 24.3324 159.122 24.0356 158 24.0356C156.877 24.0356 155.774 24.3324 154.801 24.8961L132.412 37.7416C131.441 38.3048 130.634 39.1145 130.073 40.0897C129.511 41.0648 129.215 42.171 129.214 43.2973V68.9883C129.215 70.1146 129.511 71.2208 130.073 72.1959C130.634 73.171 131.441 73.9808 132.412 74.5439L154.801 87.3894C155.774 87.9531 156.877 88.2499 158 88.2499C159.122 88.2499 160.226 87.9531 161.198 87.3894L183.587 74.5439C184.558 73.9808 185.365 73.171 185.927 72.1959C186.488 71.2208 186.784 70.1146 186.785 68.9883Z" fill="#11EBE2" fill-opacity="0.6"/>
<path d="M79.3925 68.9883V43.2973C79.3913 42.171 79.0952 41.0648 78.5338 40.0897C77.9724 39.1145 77.1655 38.3048 76.1941 37.7416L53.8052 24.8961C52.8327 24.3324 51.7296 24.0356 50.6068 24.0356C49.4839 24.0356 48.3808 24.3324 47.4084 24.8961L25.0195 37.7416C24.048 38.3048 23.2411 39.1145 22.6797 40.0897C22.1183 41.0648 21.8222 42.171 21.8211 43.2973V68.9883C21.8222 70.1146 22.1183 71.2208 22.6797 72.1959C23.2411 73.171 24.048 73.9808 25.0195 74.5439L47.4084 87.3894C48.3808 87.9531 49.4839 88.2499 50.6068 88.2499C51.7296 88.2499 52.8327 87.9531 53.8052 87.3894L76.1941 74.5439C77.1655 73.9808 77.9724 73.171 78.5338 72.1959C79.0952 71.2208 79.3913 70.1146 79.3925 68.9883Z" fill="#11EBE2" fill-opacity="0.6"/>
<path fill-rule="evenodd" clip-rule="evenodd" d="M63.2112 45.0358C64.5721 45.9809 64.9092 47.8502 63.9641 49.2111L49.4752 70.0752L37.9402 59.1809C36.7356 58.0433 36.6813 56.1446 37.819 54.94C38.9566 53.7355 40.8553 53.6812 42.0599 54.8189L48.5248 60.9247L59.0359 45.7887C59.981 44.4278 61.8503 44.0907 63.2112 45.0358Z" fill="white"/>
<path fill-rule="evenodd" clip-rule="evenodd" d="M170.211 45.0358C171.572 45.9809 171.909 47.8502 170.964 49.2111L156.475 70.0752L144.94 59.1809C143.736 58.0433 143.681 56.1446 144.819 54.94C145.957 53.7355 147.855 53.6812 149.06 54.8189L155.525 60.9247L166.036 45.7887C166.981 44.4278 168.85 44.0907 170.211 45.0358Z" fill="white"/>
<path d="M294.178 68.9883V43.2973C294.177 42.171 293.881 41.0648 293.32 40.0897C292.758 39.1145 291.951 38.3048 290.98 37.7416L268.591 24.8961C267.619 24.3324 266.516 24.0356 265.393 24.0356C264.27 24.0356 263.167 24.3324 262.194 24.8961L239.805 37.7416C238.834 38.3048 238.027 39.1145 237.466 40.0897C236.904 41.0648 236.608 42.171 236.607 43.2973V68.9883C236.608 70.1146 236.904 71.2208 237.466 72.1959C238.027 73.171 238.834 73.9808 239.805 74.5439L262.194 87.3894C263.167 87.9531 264.27 88.2499 265.393 88.2499C266.516 88.2499 267.619 87.9531 268.591 87.3894L290.98 74.5439C291.951 73.9808 292.758 73.171 293.32 72.1959C293.881 71.2208 294.177 70.1146 294.178 68.9883Z" fill="#11EBE2" fill-opacity="0.6"/>
<path d="M241.035 164.203V138.512C241.034 137.385 240.738 136.279 240.177 135.304C239.615 134.329 238.808 133.519 237.837 132.956L215.448 120.11C214.476 119.547 213.372 119.25 212.25 119.25C211.127 119.25 210.024 119.547 209.051 120.11L186.662 132.956C185.691 133.519 184.884 134.329 184.323 135.304C183.761 136.279 183.465 137.385 183.464 138.512V164.203C183.465 165.329 183.761 166.435 184.323 167.41C184.884 168.385 185.691 169.195 186.662 169.758L209.051 182.604C210.024 183.167 211.127 183.464 212.25 183.464C213.372 183.464 214.476 183.167 215.448 182.604L237.837 169.758C238.808 169.195 239.615 168.385 240.177 167.41C240.738 166.435 241.034 165.329 241.035 164.203Z" fill="#11EBE2" fill-opacity="0.6"/>
<path fill-rule="evenodd" clip-rule="evenodd" d="M278.211 45.0358C279.572 45.9809 279.909 47.8502 278.964 49.2111L264.475 70.0752L252.94 59.1809C251.736 58.0433 251.681 56.1446 252.819 54.94C253.957 53.7355 255.855 53.6812 257.06 54.8189L263.525 60.9247L274.036 45.7887C274.981 44.4278 276.85 44.0907 278.211 45.0358Z" fill="white"/>
<path fill-rule="evenodd" clip-rule="evenodd" d="M116.211 137.536C117.572 138.481 117.909 140.35 116.964 141.711L102.475 162.575L90.9401 151.681C89.7356 150.543 89.6813 148.645 90.819 147.44C91.9566 146.235 93.8553 146.181 95.0599 147.319L101.525 153.425L112.036 138.289C112.981 136.928 114.85 136.591 116.211 137.536Z" fill="white"/>
<path fill-rule="evenodd" clip-rule="evenodd" d="M224.211 139.536C225.572 140.481 225.909 142.35 224.964 143.711L210.475 164.575L198.94 153.681C197.736 152.543 197.681 150.645 198.819 149.44C199.957 148.235 201.855 148.181 203.06 149.319L209.525 155.425L220.036 140.289C220.981 138.928 222.85 138.591 224.211 139.536Z" fill="white"/>
<defs>
<linearGradient id="paint0_linear" x1="103.75" y1="93.1666" x2="103.75" y2="205.119" gradientUnits="userSpaceOnUse">
<stop stop-color="#0FB2D6"/>
<stop offset="1" stop-color="#0FD3CB"/>
</linearGradient>
<linearGradient id="paint1_linear" x1="158" y1="0.166626" x2="158" y2="112.119" gradientUnits="userSpaceOnUse">
<stop stop-color="#0FB2D6"/>
<stop offset="1" stop-color="#0FD3CB"/>
</linearGradient>
<linearGradient id="paint2_linear" x1="50.6071" y1="0.166626" x2="50.6071" y2="112.119" gradientUnits="userSpaceOnUse">
<stop stop-color="#0FB2D6"/>
<stop offset="1" stop-color="#0FD3CB"/>
</linearGradient>
<linearGradient id="paint3_linear" x1="265.393" y1="0.166626" x2="265.393" y2="112.119" gradientUnits="userSpaceOnUse">
<stop stop-color="#0FB2D6"/>
<stop offset="1" stop-color="#0FD3CB"/>
</linearGradient>
<linearGradient id="paint4_linear" x1="212.25" y1="95.381" x2="212.25" y2="207.333" gradientUnits="userSpaceOnUse">
<stop stop-color="#0FB2D6"/>
<stop offset="1" stop-color="#0FD3CB"/>
</linearGradient>
</defs>
</svg>
