<svg width="462" height="241" viewBox="0 0 462 241" fill="none" xmlns="http://www.w3.org/2000/svg">
<path fill-rule="evenodd" clip-rule="evenodd" d="M245.145 109.146C235.209 94.3549 218.324 84.6216 199.166 84.6216C169.845 84.6216 145.848 107.421 143.939 136.259C123.21 141.585 107.891 160.398 107.891 182.789C107.891 209.321 129.399 230.829 155.931 230.829C163.7 230.829 171.039 228.984 177.533 225.709C188.113 234.637 201.783 240.019 216.711 240.019C234.052 240.019 249.697 232.756 260.771 221.107C266.956 224.123 273.906 225.816 281.251 225.816C307.09 225.816 328.037 204.869 328.037 179.03C328.037 161.857 318.785 146.845 304.994 138.707C303.8 118.557 287.08 102.584 266.63 102.584C258.672 102.584 251.278 105.003 245.145 109.146Z" fill="url(#paint0_linear)"/>
<path fill-rule="evenodd" clip-rule="evenodd" d="M270.261 7.35595C267.414 3.11821 262.577 0.32959 257.088 0.32959C248.688 0.32959 241.813 6.86156 241.266 15.1235C235.327 16.6495 230.938 22.0394 230.938 28.4544C230.938 36.0556 237.1 42.2176 244.701 42.2176C246.927 42.2176 249.03 41.6892 250.89 40.7509C253.921 43.309 257.838 44.8507 262.115 44.8507C267.083 44.8507 271.565 42.77 274.738 39.4323C276.51 40.2964 278.501 40.7812 280.605 40.7812C288.008 40.7812 294.009 34.78 294.009 27.3771C294.009 22.4571 291.359 18.1562 287.407 15.8247C287.065 10.0518 282.275 5.47593 276.416 5.47593C274.136 5.47593 272.018 6.16899 270.261 7.35595Z" fill="#D7DADE"/>
<path fill-rule="evenodd" clip-rule="evenodd" d="M39.3229 181.045C36.4763 176.807 31.6388 174.018 26.15 174.018C17.7496 174.018 10.8748 180.55 10.3276 188.812C4.38878 190.338 0 195.728 0 202.143C0 209.744 6.16199 215.906 13.7632 215.906C15.9891 215.906 18.0917 215.378 19.9522 214.44C22.9832 216.998 26.8999 218.539 31.1766 218.539C36.145 218.539 40.6274 216.459 43.8 213.121C45.5721 213.985 47.563 214.47 49.6672 214.47C57.0701 214.47 63.0714 208.469 63.0714 201.066C63.0714 196.146 60.4206 191.845 56.4694 189.513C56.1271 183.741 51.3372 179.165 45.4784 179.165C43.1983 179.165 41.0801 179.858 39.3229 181.045Z" fill="#D7DADE"/>
<path fill-rule="evenodd" clip-rule="evenodd" d="M385.88 55.7959C371.652 55.7959 359.991 66.7981 358.945 80.7555L358.731 83.6018L355.977 84.3511C346.32 86.9782 339.178 95.902 339.178 106.537C339.178 119.26 349.385 129.509 361.897 129.509C365.594 129.509 369.075 128.619 372.152 127.042L374.547 125.815L376.602 127.552C381.781 131.929 388.445 134.558 395.725 134.558C404.269 134.558 411.973 130.935 417.414 125.108L419.459 122.918L422.148 124.24C425.063 125.673 428.343 126.48 431.824 126.48C443.953 126.48 453.786 116.647 453.786 104.517C453.786 96.5157 449.509 89.5089 443.098 85.6648L441.251 84.5574L441.141 82.4065C440.672 73.2094 433.062 65.8939 423.746 65.8939C420.115 65.8939 416.755 67.0002 413.969 68.8937L410.605 71.1799L408.342 67.8004C403.49 60.5532 395.239 55.7959 385.88 55.7959ZM351.203 77.4105C353.801 60.5916 368.335 47.7178 385.88 47.7178C396.689 47.7178 406.356 52.6086 412.788 60.285C416.11 58.7019 419.827 57.8157 423.746 57.8157C436.662 57.8157 447.334 67.4191 449.012 79.8776C456.775 85.3026 461.864 94.3139 461.864 104.517C461.864 121.108 448.415 134.558 431.824 134.558C428.117 134.558 424.56 133.885 421.274 132.652C414.545 138.846 405.574 142.636 395.725 142.636C387.393 142.636 379.685 139.923 373.434 135.334C369.867 136.787 365.971 137.587 361.897 137.587C344.852 137.587 331.099 123.65 331.099 106.537C331.099 93.1947 339.45 81.7981 351.203 77.4105Z" fill="url(#paint1_linear)"/>
<path fill-rule="evenodd" clip-rule="evenodd" d="M71.8397 29.2921C77.4939 22.8817 85.9896 18.8467 95.4289 18.8467C110.578 18.8467 123.412 29.2958 125.753 43.2976C136.106 46.8072 143.677 56.238 143.677 67.5125C143.677 81.8705 131.44 93.2031 116.733 93.2031C113.168 93.2031 109.756 92.5417 106.63 91.3358C101.133 95.1444 94.3673 97.3806 87.0739 97.3806C78.4194 97.3806 70.5075 94.232 64.5763 89.0429C61.6346 90.1129 58.4437 90.6969 55.1174 90.6969C40.7931 90.6969 28.8001 79.7724 28.8001 65.8417C28.8001 57.2332 33.4189 49.7318 40.3009 45.2962C41.843 34.9321 51.2098 27.2015 62.219 27.2015C65.6569 27.2015 68.9232 27.95 71.8397 29.2921ZM95.4289 25.5304C87.0311 25.5304 79.7037 29.5317 75.4241 35.5073L73.5823 38.0789L70.9135 36.3812C68.4468 34.8121 65.4592 33.8853 62.219 33.8853C53.8029 33.8853 47.219 40.0755 46.786 47.4996L46.6788 49.3381L45.0672 50.2294C39.2506 53.4463 35.4839 59.2878 35.4839 65.8417C35.4839 75.6739 44.0637 84.0131 55.1174 84.0131C58.2813 84.0131 61.2569 83.3221 63.8878 82.1032L66.0119 81.1192L67.6625 82.7792C72.4886 87.6331 79.3804 90.6968 87.0739 90.6968C93.5852 90.6968 99.5223 88.5024 104.119 84.8849L105.746 83.6047L107.617 84.4911C110.349 85.7855 113.443 86.5194 116.733 86.5194C128.097 86.5194 136.993 77.8402 136.993 67.5125C136.993 58.8106 130.707 51.3048 121.908 49.1307L119.574 48.5541L119.379 46.1586C118.45 34.7941 108.25 25.5304 95.4289 25.5304Z" fill="url(#paint2_linear)"/>
<path fill-rule="evenodd" clip-rule="evenodd" d="M383.6 63.5578C384.891 64.2977 385.337 65.9432 384.597 67.2333L358.343 113.009C357.603 114.299 355.957 114.745 354.667 114.006C353.377 113.266 352.931 111.62 353.671 110.33L379.925 64.554C380.665 63.2639 382.31 62.8179 383.6 63.5578Z" fill="url(#paint3_linear)"/>
<path fill-rule="evenodd" clip-rule="evenodd" d="M399.768 69.6234C401.054 70.3692 401.493 72.0168 400.747 73.3034L373.82 119.753C373.074 121.039 371.426 121.478 370.14 120.732C368.853 119.986 368.415 118.338 369.161 117.052L396.088 70.6024C396.834 69.3159 398.481 68.8775 399.768 69.6234Z" fill="url(#paint4_linear)"/>
<path fill-rule="evenodd" clip-rule="evenodd" d="M415.932 76.3595C417.216 77.1101 417.649 78.7593 416.898 80.0431L391.317 123.8C390.567 125.084 388.918 125.516 387.634 124.765C386.35 124.015 385.918 122.366 386.668 121.082L412.249 77.3251C412.999 76.0413 414.649 75.6089 415.932 76.3595Z" fill="url(#paint5_linear)"/>
<path fill-rule="evenodd" clip-rule="evenodd" d="M433.456 79.0644C434.733 79.8262 435.15 81.4792 434.389 82.7564L411.501 121.128C410.739 122.405 409.086 122.823 407.809 122.061C406.531 121.299 406.114 119.646 406.875 118.369L429.764 79.9975C430.525 78.7204 432.178 78.3026 433.456 79.0644Z" fill="url(#paint6_linear)"/>
<path fill-rule="evenodd" clip-rule="evenodd" d="M442.173 95.8742C443.461 96.6174 443.903 98.2641 443.16 99.5522L433.062 117.055C432.319 118.343 430.672 118.785 429.384 118.042C428.096 117.298 427.654 115.652 428.398 114.364L438.495 96.861C439.238 95.5728 440.885 95.131 442.173 95.8742Z" fill="url(#paint7_linear)"/>
<mask id="mask0" mask-type="alpha" maskUnits="userSpaceOnUse" x="39" y="28" width="95" height="59">
<path fill-rule="evenodd" clip-rule="evenodd" d="M67.4625 74.9634C64.6018 78.1134 60.3201 80.1144 55.5352 80.1144C46.9221 80.1144 39.9398 73.6308 39.9398 65.6329C39.9398 59.4264 44.1446 54.1318 50.0533 52.0714C49.9953 51.5868 49.9654 51.0939 49.9654 50.5944C49.9654 43.5193 55.9503 37.7839 63.3329 37.7839C68.3591 37.7839 72.7373 40.4422 75.0203 44.3718C77.1962 35.4906 85.6012 28.8723 95.6378 28.8723C107.327 28.8723 116.803 37.8496 116.803 48.9235C116.803 50.0836 116.699 51.2206 116.499 52.3266C116.966 52.2861 117.439 52.2654 117.917 52.2654C126.53 52.2654 133.512 58.9983 133.512 67.3038C133.512 75.6093 126.53 82.3422 117.917 82.3422C113.122 82.3422 108.833 80.2557 105.972 76.9728C102.186 82.8554 95.2333 86.7979 87.283 86.7979C78.458 86.7979 70.8622 81.9401 67.4625 74.9634Z" fill="#E00707"/>
</mask>
<g mask="url(#mask0)">
<path fill-rule="evenodd" clip-rule="evenodd" d="M46.0703 17.2306C45.5605 18.8813 43.809 19.8061 42.1583 19.2963C40.5076 18.7864 39.5828 17.035 40.0926 15.3843C40.6025 13.7336 42.3539 12.8088 44.0046 13.3186C45.6553 13.8285 46.5801 15.5799 46.0703 17.2306ZM136.093 48.3099C137.744 48.8198 139.495 47.8949 140.005 46.2443C140.515 44.5936 139.59 42.8421 137.939 42.3323C136.288 41.8224 134.537 42.7473 134.027 44.3979C133.517 46.0486 134.442 47.8001 136.093 48.3099ZM60.9453 25.0993C62.596 25.6091 64.3474 24.6843 64.8573 23.0336C65.3671 21.3829 64.4423 19.6315 62.7916 19.1216C61.1409 18.6118 59.3894 19.5366 58.8796 21.1873C58.3698 22.838 59.2946 24.5894 60.9453 25.0993ZM23.3713 13.4945C25.022 14.0044 26.7735 13.0795 27.2833 11.4288C27.7932 9.77816 26.8683 8.02671 25.2176 7.51686C23.567 7.00702 21.8155 7.93185 21.3057 9.58254C20.7958 11.2332 21.7207 12.9847 23.3713 13.4945ZM102.431 34.6392C101.921 36.2899 100.17 37.2147 98.5191 36.7048C96.8684 36.195 95.9436 34.4435 96.4534 32.7929C96.9632 31.1422 98.7147 30.2173 100.365 30.7272C102.016 31.237 102.941 32.9885 102.431 34.6392ZM79.7321 30.9023C81.3828 31.4121 83.1343 30.4873 83.6441 28.8366C84.1539 27.1859 83.2291 25.4345 81.5784 24.9246C79.9277 24.4148 78.1763 25.3396 77.6664 26.9903C77.1566 28.641 78.0814 30.3925 79.7321 30.9023ZM121.218 40.4417C120.708 42.0924 118.957 43.0172 117.306 42.5074C115.655 41.9975 114.731 40.2461 115.24 38.5954C115.75 36.9447 117.502 36.0199 119.152 36.5297C120.803 37.0396 121.728 38.791 121.218 40.4417ZM154.88 54.1125C156.531 54.6223 158.282 53.6975 158.792 52.0468C159.302 50.3961 158.377 48.6447 156.726 48.1348C155.075 47.625 153.324 48.5498 152.814 50.2005C152.304 51.8512 153.229 53.6026 154.88 54.1125ZM35.0943 19.4532C34.5844 21.1038 32.833 22.0287 31.1823 21.5188C29.5316 21.009 28.6068 19.2575 29.1166 17.6068C29.6265 15.9562 31.3779 15.0313 33.0286 15.5412C34.6793 16.051 35.6041 17.8025 35.0943 19.4532ZM68.7562 33.1239C70.4069 33.6338 72.1584 32.7089 72.6682 31.0582C73.1781 29.4076 72.2532 27.6561 70.6025 27.1463C68.9518 26.6364 67.2004 27.5612 66.6906 29.2119C66.1807 30.8626 67.1055 32.6141 68.7562 33.1239ZM110.242 42.6643C109.732 44.315 107.981 45.2398 106.33 44.7299C104.679 44.2201 103.754 42.4686 104.264 40.818C104.774 39.1673 106.526 38.2424 108.176 38.7523C109.827 39.2621 110.752 41.0136 110.242 42.6643ZM143.904 56.335C145.555 56.8449 147.306 55.92 147.816 54.2694C148.326 52.6187 147.401 50.8672 145.75 50.3574C144.099 49.8475 142.348 50.7724 141.838 52.423C141.328 54.0737 142.253 55.8252 143.904 56.335ZM53.8811 25.2557C53.3713 26.9064 51.6198 27.8312 49.9691 27.3214C48.3185 26.8115 47.3936 25.0601 47.9035 23.4094C48.4133 21.7587 50.1648 20.8339 51.8155 21.3437C53.4661 21.8536 54.391 23.605 53.8811 25.2557ZM87.5431 38.9274C89.1937 39.4372 90.9452 38.5124 91.455 36.8617C91.9649 35.211 91.0401 33.4596 89.3894 32.9497C87.7387 32.4399 85.9872 33.3647 85.4774 35.0154C84.9675 36.6661 85.8924 38.4176 87.5431 38.9274ZM129.029 48.4668C128.519 50.1175 126.768 51.0423 125.117 50.5325C123.466 50.0226 122.541 48.2712 123.051 46.6205C123.561 44.9698 125.313 44.045 126.963 44.5548C128.614 45.0647 129.539 46.8161 129.029 48.4668ZM162.691 62.1376C164.341 62.6474 166.093 61.7226 166.603 60.0719C167.113 58.4212 166.188 56.6698 164.537 56.1599C162.886 55.6501 161.135 56.5749 160.625 58.2256C160.115 59.8763 161.04 61.6277 162.691 62.1376ZM24.382 20.8219C23.8721 22.4726 22.1207 23.3975 20.47 22.8876C18.8193 22.3778 17.8945 20.6263 18.4043 18.9756C18.9141 17.325 20.6656 16.4001 22.3163 16.91C23.967 17.4198 24.8918 19.1713 24.382 20.8219ZM58.0439 34.4927C59.6946 35.0025 61.446 34.0777 61.9559 32.427C62.4657 30.7763 61.5409 29.0249 59.8902 28.515C58.2395 28.0052 56.4881 28.93 55.9782 30.5807C55.4684 32.2314 56.3932 33.9829 58.0439 34.4927ZM99.5295 44.0326C99.0197 45.6833 97.2682 46.6081 95.6176 46.0983C93.9669 45.5884 93.042 43.837 93.5519 42.1863C94.0617 40.5356 95.8132 39.6108 97.4639 40.1206C99.1145 40.6304 100.039 42.3819 99.5295 44.0326ZM133.191 57.7033C134.842 58.2132 136.594 57.2884 137.103 55.6377C137.613 53.987 136.688 52.2355 135.038 51.7257C133.387 51.2158 131.636 52.1407 131.126 53.7914C130.616 55.442 131.541 57.1935 133.191 57.7033ZM43.1688 26.6245C42.6589 28.2752 40.9075 29.2 39.2568 28.6902C37.6061 28.1803 36.6813 26.4289 37.1911 24.7782C37.701 23.1275 39.4524 22.2027 41.1031 22.7125C42.7538 23.2223 43.6786 24.9738 43.1688 26.6245ZM76.8307 40.2957C78.4814 40.8056 80.2329 39.8807 80.7427 38.23C81.2525 36.5794 80.3277 34.8279 78.677 34.3181C77.0263 33.8082 75.2749 34.7331 74.765 36.3837C74.2552 38.0344 75.18 39.7859 76.8307 40.2957ZM118.317 49.8351C117.807 51.4858 116.055 52.4106 114.405 51.9008C112.754 51.391 111.829 49.6395 112.339 47.9888C112.849 46.3381 114.6 45.4133 116.251 45.9231C117.902 46.433 118.826 48.1844 118.317 49.8351ZM151.978 63.5059C153.629 64.0157 155.38 63.0909 155.89 61.4402C156.4 59.7895 155.475 58.0381 153.825 57.5282C152.174 57.0184 150.422 57.9432 149.913 59.5939C149.403 61.2446 150.328 62.996 151.978 63.5059ZM32.1928 28.847C31.6829 30.4977 29.9315 31.4226 28.2808 30.9127C26.6301 30.4029 25.7053 28.6514 26.2151 27.0007C26.725 25.3501 28.4764 24.4252 30.1271 24.9351C31.7778 25.4449 32.7026 27.1964 32.1928 28.847ZM65.8547 42.5178C67.5054 43.0277 69.2569 42.1028 69.7667 40.4521C70.2765 38.8014 69.3517 37.05 67.701 36.5402C66.0503 36.0303 64.2989 36.9551 63.789 38.6058C63.2792 40.2565 64.204 42.008 65.8547 42.5178ZM107.34 52.0577C106.831 53.7084 105.079 54.6332 103.429 54.1234C101.778 53.6135 100.853 51.8621 101.363 50.2114C101.873 48.5607 103.624 47.6359 105.275 48.1457C106.926 48.6556 107.85 50.407 107.34 52.0577ZM141.002 65.7284C142.653 66.2383 144.405 65.3135 144.914 63.6628C145.424 62.0121 144.499 60.2606 142.849 59.7508C141.198 59.2409 139.447 60.1658 138.937 61.8165C138.427 63.4672 139.352 65.2186 141.002 65.7284ZM50.9797 34.6496C50.4699 36.3003 48.7184 37.2251 47.0678 36.7153C45.4171 36.2054 44.4922 34.454 45.0021 32.8033C45.5119 31.1526 47.2634 30.2278 48.9141 30.7376C50.5648 31.2475 51.4896 32.9989 50.9797 34.6496ZM84.6417 48.3208C86.2924 48.8307 88.0438 47.9058 88.5537 46.2551C89.0635 44.6045 88.1387 42.853 86.488 42.3432C84.8373 41.8333 83.0858 42.7582 82.576 44.4088C82.0662 46.0595 82.991 47.811 84.6417 48.3208ZM126.127 57.8602C125.618 59.5109 123.866 60.4358 122.215 59.9259C120.565 59.4161 119.64 57.6646 120.15 56.0139C120.66 54.3632 122.411 53.4384 124.062 53.9483C125.712 54.4581 126.637 56.2096 126.127 57.8602ZM159.789 71.531C161.44 72.0408 163.192 71.116 163.701 69.4653C164.211 67.8146 163.286 66.0632 161.636 65.5533C159.985 65.0435 158.234 65.9683 157.724 67.619C157.214 69.2697 158.139 71.0211 159.789 71.531ZM21.4807 30.2154C20.9708 31.866 19.2194 32.7909 17.5687 32.281C15.918 31.7712 14.9932 30.0197 15.503 28.3691C16.0129 26.7184 17.7643 25.7935 19.415 26.3034C21.0657 26.8132 21.9905 28.5647 21.4807 30.2154ZM55.1426 43.8861C56.7933 44.396 58.5448 43.4711 59.0546 41.8204C59.5644 40.1698 58.6396 38.4183 56.9889 37.9085C55.3382 37.3986 53.5868 38.3235 53.0769 39.9741C52.5671 41.6248 53.4919 43.3763 55.1426 43.8861ZM96.6283 53.426C96.1184 55.0767 94.367 56.0015 92.7163 55.4917C91.0656 54.9818 90.1408 53.2304 90.6506 51.5797C91.1605 49.929 92.9119 49.0042 94.5626 49.514C96.2133 50.0239 97.1381 51.7753 96.6283 53.426ZM130.29 67.0972C131.941 67.6071 133.692 66.6822 134.202 65.0316C134.712 63.3809 133.787 61.6294 132.137 61.1196C130.486 60.6097 128.734 61.5346 128.225 63.1853C127.715 64.8359 128.64 66.5874 130.29 67.0972ZM40.2675 36.0179C39.7577 37.6686 38.0062 38.5934 36.3555 38.0836C34.7049 37.5737 33.78 35.8223 34.2899 34.1716C34.7997 32.5209 36.5512 31.5961 38.2018 32.1059C39.8525 32.6158 40.7774 34.3672 40.2675 36.0179ZM73.9295 49.6891C75.5801 50.199 77.3316 49.2741 77.8414 47.6235C78.3513 45.9728 77.4264 44.2213 75.7758 43.7115C74.1251 43.2016 72.3736 44.1265 71.8638 45.7772C71.3539 47.4278 72.2788 49.1793 73.9295 49.6891ZM115.415 59.229C114.906 60.8797 113.154 61.8045 111.503 61.2947C109.853 60.7849 108.928 59.0334 109.438 57.3827C109.948 55.732 111.699 54.8072 113.35 55.317C115 55.8269 115.925 57.5783 115.415 59.229ZM149.077 72.8998C150.728 73.4096 152.479 72.4848 152.989 70.8341C153.499 69.1834 152.574 67.432 150.923 66.9221C149.273 66.4123 147.521 67.3371 147.011 68.9878C146.502 70.6385 147.426 72.3899 149.077 72.8998ZM29.2915 38.2405C28.7817 39.8912 27.0302 40.816 25.3795 40.3061C23.7288 39.7963 22.804 38.0448 23.3139 36.3942C23.8237 34.7435 25.5752 33.8186 27.2258 34.3285C28.8765 34.8383 29.8014 36.5898 29.2915 38.2405ZM62.9534 51.9112C64.6041 52.4211 66.3556 51.4962 66.8654 49.8456C67.3753 48.1949 66.4504 46.4434 64.7998 45.9336C63.1491 45.4237 61.3976 46.3486 60.8878 47.9992C60.3779 49.6499 61.3028 51.4014 62.9534 51.9112ZM104.439 61.4511C103.929 63.1018 102.178 64.0266 100.527 63.5168C98.8766 63.0069 97.9517 61.2555 98.4616 59.6048C98.9714 57.9541 100.723 57.0293 102.374 57.5391C104.024 58.049 104.949 59.8004 104.439 61.4511ZM138.101 75.1223C139.752 75.6322 141.503 74.7074 142.013 73.0567C142.523 71.406 141.598 69.6545 139.947 69.1447C138.297 68.6348 136.545 69.5597 136.035 71.2104C135.526 72.861 136.45 74.6125 138.101 75.1223ZM48.0785 44.043C47.5686 45.6937 45.8172 46.6185 44.1665 46.1087C42.5158 45.5988 41.591 43.8474 42.1008 42.1967C42.6107 40.546 44.3621 39.6212 46.0128 40.131C47.6635 40.6409 48.5883 42.3923 48.0785 44.043ZM81.7403 57.7142C83.391 58.2241 85.1424 57.2993 85.6523 55.6486C86.1621 53.9979 85.2373 52.2464 83.5866 51.7366C81.9359 51.2267 80.1845 52.1516 79.6746 53.8023C79.1648 55.4529 80.0896 57.2044 81.7403 57.7142ZM123.226 67.2537C122.716 68.9043 120.965 69.8292 119.314 69.3193C117.664 68.8095 116.739 67.058 117.249 65.4073C117.758 63.7567 119.51 62.8318 121.161 63.3417C122.811 63.8515 123.736 65.603 123.226 67.2537ZM156.888 80.9249C158.539 81.4347 160.29 80.5099 160.8 78.8592C161.31 77.2085 160.385 75.4571 158.734 74.9472C157.084 74.4374 155.332 75.3622 154.822 77.0129C154.312 78.6636 155.237 80.415 156.888 80.9249ZM18.5794 39.6083C18.0696 41.259 16.3181 42.1838 14.6674 41.674C13.0167 41.1641 12.0919 39.4127 12.6018 37.762C13.1116 36.1113 14.8631 35.1865 16.5137 35.6963C18.1644 36.2062 19.0893 37.9576 18.5794 39.6083ZM52.2412 53.2791C53.8919 53.7889 55.6434 52.8641 56.1532 51.2134C56.6631 49.5627 55.7382 47.8113 54.0875 47.3014C52.4369 46.7916 50.6854 47.7164 50.1756 49.3671C49.6657 51.0178 50.5905 52.7692 52.2412 53.2791ZM93.727 62.8194C93.2172 64.4701 91.4657 65.3949 89.815 64.8851C88.1643 64.3753 87.2395 62.6238 87.7493 60.9731C88.2592 59.3224 90.0106 58.3976 91.6613 58.9074C93.312 59.4173 94.2368 61.1687 93.727 62.8194ZM127.389 76.4902C129.04 77 130.791 76.0752 131.301 74.4245C131.811 72.7738 130.886 71.0224 129.235 70.5125C127.585 70.0027 125.833 70.9275 125.323 72.5782C124.813 74.2289 125.738 75.9803 127.389 76.4902ZM37.3662 45.4108C36.8564 47.0615 35.1049 47.9864 33.4543 47.4765C31.8036 46.9667 30.8787 45.2152 31.3886 43.5645C31.8984 41.9139 33.6499 40.989 35.3006 41.4989C36.9513 42.0087 37.8761 43.7602 37.3662 45.4108ZM71.0282 59.0826C72.6789 59.5924 74.4303 58.6676 74.9402 57.0169C75.45 55.3662 74.5252 53.6147 72.8745 53.1049C71.2238 52.5951 69.4724 53.5199 68.9625 55.1706C68.4527 56.8213 69.3775 58.5727 71.0282 59.0826ZM112.514 68.622C112.004 70.2727 110.253 71.1975 108.602 70.6876C106.951 70.1778 106.026 68.4263 106.536 66.7757C107.046 65.125 108.798 64.2001 110.448 64.71C112.099 65.2198 113.024 66.9713 112.514 68.622ZM146.176 82.2927C147.826 82.8026 149.578 81.8777 150.088 80.227C150.598 78.5764 149.673 76.8249 148.022 76.3151C146.371 75.8052 144.62 76.7301 144.11 78.3807C143.6 80.0314 144.525 81.7829 146.176 82.2927ZM26.3902 47.6334C25.8804 49.2841 24.1289 50.2089 22.4783 49.6991C20.8276 49.1892 19.9027 47.4378 20.4126 45.7871C20.9224 44.1364 22.6739 43.2116 24.3246 43.7214C25.9753 44.2313 26.9001 45.9827 26.3902 47.6334ZM60.0522 61.3042C61.7029 61.814 63.4543 60.8892 63.9642 59.2385C64.474 57.5878 63.5492 55.8364 61.8985 55.3265C60.2478 54.8167 58.4963 55.7415 57.9865 57.3922C57.4767 59.0429 58.4015 60.7943 60.0522 61.3042ZM101.538 70.8445C101.028 72.4952 99.2765 73.42 97.6258 72.9102C95.9752 72.4004 95.0503 70.6489 95.5602 68.9982C96.07 67.3475 97.8215 66.4227 99.4722 66.9325C101.123 67.4424 102.048 69.1938 101.538 70.8445ZM135.2 84.5153C136.85 85.0251 138.602 84.1003 139.112 82.4496C139.622 80.7989 138.697 79.0475 137.046 78.5376C135.395 78.0278 133.644 78.9526 133.134 80.6033C132.624 82.254 133.549 84.0054 135.2 84.5153ZM45.1771 53.436C44.6672 55.0866 42.9158 56.0115 41.2651 55.5016C39.6144 54.9918 38.6896 53.2403 39.1994 51.5896C39.7093 49.939 41.4607 49.0141 43.1114 49.524C44.7621 50.0338 45.6869 51.7853 45.1771 53.436ZM78.839 67.1072C80.4897 67.617 82.2411 66.6922 82.751 65.0415C83.2608 63.3908 82.336 61.6394 80.6853 61.1295C79.0346 60.6197 77.2832 61.5445 76.7733 63.1952C76.2635 64.8459 77.1883 66.5973 78.839 67.1072ZM120.325 76.6471C119.815 78.2978 118.064 79.2226 116.413 78.7127C114.762 78.2029 113.837 76.4514 114.347 74.8008C114.857 73.1501 116.609 72.2252 118.259 72.7351C119.91 73.2449 120.835 74.9964 120.325 76.6471ZM153.987 90.3178C155.638 90.8277 157.389 89.9028 157.899 88.2522C158.409 86.6015 157.484 84.85 155.833 84.3402C154.182 83.8303 152.431 84.7552 151.921 86.4058C151.411 88.0565 152.336 89.808 153.987 90.3178ZM15.678 49.0017C15.1682 50.6524 13.4167 51.5772 11.766 51.0674C10.1154 50.5576 9.19052 48.8061 9.70036 47.1554C10.2102 45.5047 11.9617 44.5799 13.6123 45.0897C15.263 45.5996 16.1879 47.351 15.678 49.0017ZM49.34 62.673C50.9906 63.1828 52.7421 62.258 53.2519 60.6073C53.7618 58.9566 52.8369 57.2051 51.1863 56.6953C49.5356 56.1855 47.7841 57.1103 47.2743 58.761C46.7644 60.4117 47.6893 62.1631 49.34 62.673ZM90.8257 72.2128C90.3159 73.8635 88.5644 74.7884 86.9137 74.2785C85.2631 73.7687 84.3382 72.0172 84.8481 70.3665C85.3579 68.7159 87.1094 67.791 88.76 68.3009C90.4107 68.8107 91.3356 70.5622 90.8257 72.2128ZM124.488 85.8836C126.138 86.3934 127.89 85.4686 128.4 83.8179C128.909 82.1672 127.985 80.4158 126.334 79.9059C124.683 79.3961 122.932 80.3209 122.422 81.9716C121.912 83.6223 122.837 85.3738 124.488 85.8836ZM34.465 54.8047C33.9551 56.4554 32.2037 57.3803 30.553 56.8704C28.9023 56.3606 27.9775 54.6091 28.4873 52.9584C28.9972 51.3078 30.7486 50.3829 32.3993 50.8928C34.05 51.4026 34.9748 53.1541 34.465 54.8047ZM68.1269 68.476C69.7776 68.9858 71.5291 68.061 72.0389 66.4103C72.5487 64.7596 71.6239 63.0082 69.9732 62.4983C68.3225 61.9885 66.5711 62.9133 66.0612 64.564C65.5514 66.2147 66.4762 67.9661 68.1269 68.476ZM109.613 78.0154C109.103 79.6661 107.351 80.5909 105.701 80.0811C104.05 79.5712 103.125 77.8198 103.635 76.1691C104.145 74.5184 105.896 73.5936 107.547 74.1034C109.198 74.6132 110.123 76.3647 109.613 78.0154ZM143.274 91.6861C144.925 92.196 146.677 91.2712 147.186 89.6205C147.696 87.9698 146.771 86.2183 145.121 85.7085C143.47 85.1986 141.719 86.1235 141.209 87.7742C140.699 89.4248 141.624 91.1763 143.274 91.6861ZM23.489 57.0268C22.9791 58.6775 21.2277 59.6024 19.577 59.0925C17.9263 58.5827 17.0015 56.8312 17.5113 55.1805C18.0212 53.5298 19.7726 52.605 21.4233 53.1149C23.074 53.6247 23.9988 55.3762 23.489 57.0268ZM57.1509 70.6981C58.8016 71.2079 60.553 70.2831 61.0629 68.6324C61.5727 66.9817 60.6479 65.2303 58.9972 64.7204C57.3465 64.2106 55.5951 65.1354 55.0852 66.7861C54.5754 68.4368 55.5002 70.1882 57.1509 70.6981ZM98.6366 80.2379C98.1267 81.8886 96.3753 82.8135 94.7246 82.3036C93.0739 81.7938 92.1491 80.0423 92.6589 78.3916C93.1687 76.741 94.9202 75.8161 96.5709 76.326C98.2216 76.8358 99.1464 78.5873 98.6366 80.2379ZM132.298 93.9087C133.949 94.4186 135.701 93.4937 136.21 91.843C136.72 90.1924 135.795 88.4409 134.145 87.9311C132.494 87.4212 130.743 88.346 130.233 89.9967C129.723 91.6474 130.648 93.3989 132.298 93.9087ZM42.2758 62.8294C41.766 64.4801 40.0145 65.4049 38.3638 64.8951C36.7131 64.3852 35.7883 62.6338 36.2982 60.9831C36.808 59.3324 38.5595 58.4076 40.2101 58.9174C41.8608 59.4272 42.7857 61.1787 42.2758 62.8294ZM75.9377 76.5011C77.5884 77.0109 79.3399 76.0861 79.8497 74.4354C80.3596 72.7847 79.4347 71.0333 77.784 70.5234C76.1334 70.0136 74.3819 70.9384 73.8721 72.5891C73.3622 74.2398 74.2871 75.9912 75.9377 76.5011ZM117.424 86.0405C116.914 87.6912 115.162 88.616 113.512 88.1062C111.861 87.5963 110.936 85.8449 111.446 84.1942C111.956 82.5435 113.707 81.6187 115.358 82.1285C117.009 82.6384 117.933 84.3898 117.424 86.0405ZM151.085 99.7113C152.736 100.221 154.487 99.2963 154.997 97.6456C155.507 95.9949 154.582 94.2434 152.932 93.7336C151.281 93.2238 149.53 94.1486 149.02 95.7993C148.51 97.45 149.435 99.2014 151.085 99.7113ZM12.7766 58.3956C12.2668 60.0463 10.5153 60.9711 8.86465 60.4613C7.21396 59.9514 6.28913 58.2 6.79898 56.5493C7.30882 54.8986 9.06027 53.9738 10.711 54.4836C12.3616 54.9935 13.2865 56.7449 12.7766 58.3956ZM46.4386 72.0664C48.0892 72.5762 49.8407 71.6514 50.3505 70.0007C50.8604 68.35 49.9356 66.5986 48.2849 66.0887C46.6342 65.5789 44.8827 66.5037 44.3729 68.1544C43.863 69.8051 44.7879 71.5565 46.4386 72.0664ZM87.9243 81.6063C87.4145 83.2569 85.663 84.1818 84.0124 83.6719C82.3617 83.1621 81.4368 81.4106 81.9467 79.76C82.4565 78.1093 84.208 77.1844 85.8587 77.6943C87.5093 78.2041 88.4342 79.9556 87.9243 81.6063ZM121.586 95.2775C123.237 95.7873 124.988 94.8625 125.498 93.2118C126.008 91.5611 125.083 89.8097 123.432 89.2998C121.782 88.79 120.03 89.7148 119.52 91.3655C119.011 93.0162 119.935 94.7677 121.586 95.2775ZM31.5635 64.1982C31.0536 65.8488 29.3022 66.7737 27.6515 66.2638C26.0008 65.754 25.076 64.0025 25.5858 62.3519C26.0957 60.7012 27.8471 59.7763 29.4978 60.2862C31.1485 60.796 32.0733 62.5475 31.5635 64.1982ZM65.2254 77.8694C66.8761 78.3792 68.6275 77.4544 69.1374 75.8037C69.6472 74.153 68.7224 72.4016 67.0717 71.8917C65.421 71.3819 63.6696 72.3067 63.1597 73.9574C62.6499 75.6081 63.5747 77.3596 65.2254 77.8694ZM106.711 87.4088C106.201 89.0595 104.45 89.9843 102.799 89.4745C101.149 88.9646 100.224 87.2132 100.734 85.5625C101.243 83.9118 102.995 82.987 104.646 83.4968C106.296 84.0067 107.221 85.7581 106.711 87.4088ZM140.373 101.08C142.024 101.59 143.775 100.665 144.285 99.0144C144.795 97.3637 143.87 95.6122 142.219 95.1024C140.569 94.5925 138.817 95.5174 138.307 97.1681C137.798 98.8187 138.722 100.57 140.373 101.08ZM20.5876 66.4207C20.0777 68.0714 18.3263 68.9962 16.6756 68.4864C15.0249 67.9766 14.1001 66.2251 14.6099 64.5744C15.1198 62.9237 16.8712 61.9989 18.5219 62.5087C20.1726 63.0186 21.0974 64.77 20.5876 66.4207ZM54.2494 80.0915C55.9001 80.6013 57.6515 79.6765 58.1614 78.0258C58.6712 76.3751 57.7464 74.6237 56.0957 74.1138C54.445 73.604 52.6936 74.5288 52.1837 76.1795C51.6739 77.8302 52.5987 79.5816 54.2494 80.0915ZM95.7352 89.6314C95.2253 91.2821 93.4739 92.2069 91.8232 91.697C90.1725 91.1872 89.2477 89.4357 89.7575 87.7851C90.2674 86.1344 92.0188 85.2095 93.6695 85.7194C95.3202 86.2292 96.245 87.9807 95.7352 89.6314ZM129.397 103.302C131.048 103.812 132.799 102.887 133.309 101.236C133.819 99.5858 132.894 97.8343 131.243 97.3245C129.593 96.8146 127.841 97.7395 127.331 99.3901C126.822 101.041 127.746 102.792 129.397 103.302ZM39.3744 72.2233C38.8646 73.874 37.1131 74.7988 35.4624 74.2889C33.8118 73.7791 32.8869 72.0276 33.3968 70.377C33.9066 68.7263 35.6581 67.8014 37.3087 68.3113C38.9594 68.8211 39.8843 70.5726 39.3744 72.2233ZM73.0363 85.8945C74.687 86.4043 76.4385 85.4795 76.9483 83.8288C77.4582 82.1781 76.5333 80.4267 74.8827 79.9168C73.232 79.407 71.4805 80.3318 70.9707 81.9825C70.4608 83.6332 71.3857 85.3847 73.0363 85.8945ZM114.522 95.4339C114.012 97.0846 112.261 98.0094 110.61 97.4996C108.959 96.9897 108.035 95.2383 108.544 93.5876C109.054 91.9369 110.806 91.0121 112.456 91.5219C114.107 92.0318 115.032 93.7832 114.522 95.4339ZM148.184 109.105C149.835 109.615 151.586 108.69 152.096 107.039C152.606 105.388 151.681 103.637 150.03 103.127C148.38 102.617 146.628 103.542 146.118 105.193C145.609 106.843 146.533 108.595 148.184 109.105Z" fill="url(#paint8_linear)"/>
</g>
<defs>
<linearGradient id="paint0_linear" x1="217.964" y1="84.6216" x2="217.964" y2="240.019" gradientUnits="userSpaceOnUse">
<stop stop-color="#0FB2D6"/>
<stop offset="1" stop-color="#0FD3CB"/>
</linearGradient>
<linearGradient id="paint1_linear" x1="396.482" y1="47.7178" x2="396.482" y2="142.636" gradientUnits="userSpaceOnUse">
<stop stop-color="#0FB2D6"/>
<stop offset="1" stop-color="#0FD3CB"/>
</linearGradient>
<linearGradient id="paint2_linear" x1="86.2385" y1="18.8467" x2="86.2385" y2="97.3806" gradientUnits="userSpaceOnUse">
<stop stop-color="#0FB2D6"/>
<stop offset="1" stop-color="#0FD3CB"/>
</linearGradient>
<linearGradient id="paint3_linear" x1="369.134" y1="63.2004" x2="369.134" y2="114.363" gradientUnits="userSpaceOnUse">
<stop stop-color="#0FB2D6"/>
<stop offset="1" stop-color="#0FD3CB"/>
</linearGradient>
<linearGradient id="paint4_linear" x1="384.954" y1="69.2598" x2="384.954" y2="121.095" gradientUnits="userSpaceOnUse">
<stop stop-color="#0FB2D6"/>
<stop offset="1" stop-color="#0FD3CB"/>
</linearGradient>
<linearGradient id="paint5_linear" x1="401.783" y1="75.991" x2="401.783" y2="125.134" gradientUnits="userSpaceOnUse">
<stop stop-color="#0FB2D6"/>
<stop offset="1" stop-color="#0FD3CB"/>
</linearGradient>
<linearGradient id="paint6_linear" x1="420.632" y1="78.6838" x2="420.632" y2="122.441" gradientUnits="userSpaceOnUse">
<stop stop-color="#0FB2D6"/>
<stop offset="1" stop-color="#0FD3CB"/>
</linearGradient>
<linearGradient id="paint7_linear" x1="435.779" y1="95.5134" x2="435.779" y2="118.402" gradientUnits="userSpaceOnUse">
<stop stop-color="#0FB2D6"/>
<stop offset="1" stop-color="#0FD3CB"/>
</linearGradient>
<linearGradient id="paint8_linear" x1="95.6687" y1="29.276" x2="77.733" y2="87.3451" gradientUnits="userSpaceOnUse">
<stop stop-color="#0FB2D6"/>
<stop offset="1" stop-color="#0FD3CB"/>
</linearGradient>
</defs>
</svg>
