<svg width="441" height="364" viewBox="0 0 441 364" fill="none" xmlns="http://www.w3.org/2000/svg">
<path fill-rule="evenodd" clip-rule="evenodd" d="M409.273 37.5366C405.483 31.8762 399.03 28.1495 391.707 28.1495C380.578 28.1495 371.459 36.7544 370.641 47.6736C362.888 49.7821 357.183 56.9285 357.183 65.4199C357.183 75.5696 365.334 83.7976 375.389 83.7976C378.351 83.7976 381.148 83.0835 383.62 81.8166C387.619 85.1969 392.776 87.2325 398.404 87.2325C405.013 87.2325 410.972 84.4259 415.17 79.9312C417.521 81.0875 420.167 81.7368 422.965 81.7368C432.735 81.7368 440.655 73.8165 440.655 64.0462C440.655 57.5974 437.205 51.9545 432.049 48.8631C431.656 41.1519 425.279 35.0206 417.469 35.0206C414.431 35.0206 411.61 35.9486 409.273 37.5366Z" fill="#D7DADE"/>
<path fill-rule="evenodd" clip-rule="evenodd" d="M352.613 125.371C353.94 123.518 356.195 122.298 358.752 122.298C362.642 122.298 365.83 125.119 366.122 128.701C368.862 129.378 370.884 131.737 370.884 134.543C370.884 137.878 368.029 140.582 364.508 140.582C363.484 140.582 362.516 140.353 361.659 139.947C360.259 141.048 358.459 141.71 356.495 141.71C354.174 141.71 352.082 140.786 350.61 139.305C349.781 139.689 348.848 139.905 347.861 139.905C344.433 139.905 341.654 137.302 341.654 134.092C341.654 131.96 342.88 130.095 344.709 129.084C344.856 126.56 347.07 124.556 349.78 124.556C350.829 124.556 351.804 124.856 352.613 125.371Z" fill="#D7DADE"/>
<path fill-rule="evenodd" clip-rule="evenodd" d="M413.989 113.905C415.814 111.357 418.913 109.68 422.43 109.68C427.778 109.68 432.162 113.559 432.564 118.484C436.332 119.414 439.112 122.659 439.112 126.518C439.112 131.103 435.186 134.82 430.344 134.82C428.936 134.82 427.605 134.505 426.426 133.947C424.502 135.461 422.027 136.372 419.326 136.372C416.135 136.372 413.259 135.1 411.234 133.064C410.095 133.592 408.812 133.889 407.454 133.889C402.741 133.889 398.919 130.311 398.919 125.897C398.919 122.964 400.606 120.401 403.12 119.01C403.323 115.54 406.367 112.784 410.093 112.784C411.535 112.784 412.876 113.197 413.989 113.905Z" fill="#D7DADE"/>
<path d="M39.248 178.592H4.17532C1.86936 178.592 0 180.461 0 182.767C0 185.073 1.86936 186.942 4.17533 186.942H39.2481C41.554 186.942 43.4234 185.073 43.4234 182.767C43.4234 180.461 41.554 178.592 39.248 178.592Z" fill="#D7DADE"/>
<path d="M40.9182 196.963H24.2169C21.911 196.963 20.0416 198.833 20.0416 201.139C20.0416 203.445 21.911 205.314 24.217 205.314H40.9182C43.2242 205.314 45.0936 203.445 45.0936 201.139C45.0936 198.833 43.2242 196.963 40.9182 196.963Z" fill="#D7DADE"/>
<path d="M72.6507 213.664H44.2585C41.9525 213.664 40.0831 215.534 40.0831 217.84C40.0831 220.145 41.9525 222.015 44.2585 222.015H72.6507C74.9566 222.015 76.826 220.145 76.826 217.84C76.826 215.534 74.9566 213.664 72.6507 213.664Z" fill="#D7DADE"/>
<path d="M60.9598 318.742H44.2585C41.9525 318.742 40.0831 320.612 40.0831 322.918C40.0831 325.224 41.9525 327.093 44.2585 327.093H60.9598C63.2657 327.093 65.1351 325.224 65.1351 322.918C65.1351 320.612 63.2657 318.742 60.9598 318.742Z" fill="#D7DADE"/>
<path d="M92.6923 232.036H64.3001C61.9941 232.036 60.1248 233.905 60.1248 236.211C60.1248 238.517 61.9941 240.387 64.3001 240.387H92.6923C94.9983 240.387 96.8676 238.517 96.8676 236.211C96.8676 233.905 94.9982 232.036 92.6923 232.036Z" fill="#D7DADE"/>
<path d="M177.869 196.963H172.858C170.552 196.963 168.683 198.833 168.683 201.139C168.683 203.445 170.552 205.314 172.858 205.314H177.869C180.175 205.314 182.044 203.445 182.044 201.139C182.044 198.833 180.175 196.963 177.869 196.963Z" fill="#D7DADE"/>
<path d="M216.282 213.664H209.601C207.295 213.664 205.426 215.534 205.426 217.84C205.426 220.145 207.295 222.015 209.601 222.015H216.282C218.588 222.015 220.457 220.145 220.457 217.84C220.457 215.534 218.588 213.664 216.282 213.664Z" fill="#D7DADE"/>
<path d="M234.653 232.036H231.313C229.007 232.036 227.138 233.905 227.138 236.211C227.138 238.517 229.007 240.387 231.313 240.387H234.653C236.959 240.387 238.829 238.517 238.829 236.211C238.829 233.905 236.959 232.036 234.653 232.036Z" fill="#D7DADE"/>
<path d="M299.149 232.036H294.139C291.833 232.036 289.964 233.905 289.964 236.211C289.964 238.517 291.833 240.387 294.139 240.387H299.149C301.455 240.387 303.325 238.517 303.325 236.211C303.325 233.905 301.455 232.036 299.149 232.036Z" fill="#D7DADE"/>
<path d="M75.991 250.407H64.3001C61.9941 250.407 60.1248 252.276 60.1248 254.582C60.1248 256.888 61.9941 258.758 64.3001 258.758H75.991C78.297 258.758 80.1663 256.888 80.1663 254.582C80.1663 252.276 78.297 250.407 75.991 250.407Z" fill="#D7DADE"/>
<path d="M75.991 302.041H64.3001C61.9941 302.041 60.1248 303.91 60.1248 306.216C60.1248 308.522 61.9941 310.392 64.3001 310.392H75.991C78.297 310.392 80.1663 308.522 80.1663 306.216C80.1663 303.91 78.297 302.041 75.991 302.041Z" fill="#D7DADE"/>
<path d="M94.3623 267.109H84.3415C82.0355 267.109 80.1662 268.978 80.1662 271.284C80.1662 273.59 82.0355 275.459 84.3415 275.459H94.3623C96.6682 275.459 98.5376 273.59 98.5376 271.284C98.5376 268.978 96.6682 267.109 94.3623 267.109Z" fill="#D7DADE"/>
<path d="M121.084 267.109H116.074C113.768 267.109 111.899 268.978 111.899 271.284C111.899 273.59 113.768 275.459 116.074 275.459H121.084C123.39 275.459 125.26 273.59 125.26 271.284C125.26 268.978 123.39 267.109 121.084 267.109Z" fill="#D7DADE"/>
<path d="M94.3623 285.48H84.3415C82.0355 285.48 80.1662 287.349 80.1662 289.655C80.1662 291.961 82.0355 293.83 84.3415 293.83H94.3623C96.6682 293.83 98.5376 291.961 98.5376 289.655C98.5376 287.349 96.6682 285.48 94.3623 285.48Z" fill="#D7DADE"/>
<path d="M121.084 285.48H116.074C113.768 285.48 111.899 287.349 111.899 289.655C111.899 291.961 113.768 293.83 116.074 293.83H121.084C123.39 293.83 125.26 291.961 125.26 289.655C125.26 287.349 123.39 285.48 121.084 285.48Z" fill="#D7DADE"/>
<path d="M279.991 267.109H269.971C267.665 267.109 265.795 268.978 265.795 271.284C265.795 273.59 267.665 275.459 269.971 275.459H279.991C282.297 275.459 284.167 273.59 284.167 271.284C284.167 268.978 282.297 267.109 279.991 267.109Z" fill="#D7DADE"/>
<path d="M238.369 285.48H233.359C231.053 285.48 229.183 287.349 229.183 289.655C229.183 291.961 231.053 293.83 233.359 293.83H238.369C240.675 293.83 242.544 291.961 242.544 289.655C242.544 287.349 240.675 285.48 238.369 285.48Z" fill="#D7DADE"/>
<path d="M263.421 285.48H258.411C256.105 285.48 254.235 287.349 254.235 289.655C254.235 291.961 256.105 293.83 258.411 293.83H263.421C265.727 293.83 267.596 291.961 267.596 289.655C267.596 287.349 265.727 285.48 263.421 285.48Z" fill="#D7DADE"/>
<path d="M91.0221 196.963H62.6299C60.3239 196.963 58.4545 198.833 58.4545 201.139C58.4545 203.445 60.3239 205.314 62.6299 205.314H91.0221C93.328 205.314 95.1974 203.445 95.1974 201.139C95.1974 198.833 93.328 196.963 91.0221 196.963Z" fill="#D7DADE"/>
<path d="M116.074 213.664H94.3624C92.0564 213.664 90.187 215.534 90.187 217.84C90.187 220.145 92.0564 222.015 94.3624 222.015H116.074C118.38 222.015 120.249 220.145 120.249 217.84C120.249 215.534 118.38 213.664 116.074 213.664Z" fill="#D7DADE"/>
<path d="M136.115 232.036H112.734C110.428 232.036 108.558 233.905 108.558 236.211C108.558 238.517 110.428 240.387 112.734 240.387H136.115C138.421 240.387 140.291 238.517 140.291 236.211C140.291 233.905 138.421 232.036 136.115 232.036Z" fill="#D7DADE"/>
<path fill-rule="evenodd" clip-rule="evenodd" d="M136.951 271.284C136.951 268.978 138.82 267.109 141.126 267.109H157.827C160.133 267.109 162.003 268.978 162.003 271.284V271.284C162.003 273.59 160.133 275.459 157.827 275.459H141.126C138.82 275.459 136.951 273.59 136.951 271.284V271.284Z" fill="#D7DADE"/>
<path fill-rule="evenodd" clip-rule="evenodd" d="M136.951 289.655C136.951 287.349 138.82 285.48 141.126 285.48H157.827C160.133 285.48 162.003 287.349 162.003 289.655V289.655C162.003 291.961 160.133 293.83 157.827 293.83H141.126C138.82 293.83 136.951 291.961 136.951 289.655V289.655Z" fill="#D7DADE"/>
<path d="M151.147 196.963H111.064C108.758 196.963 106.888 198.833 106.888 201.139C106.888 203.445 108.758 205.314 111.064 205.314H151.147C153.453 205.314 155.322 203.445 155.322 201.139C155.322 198.833 153.453 196.963 151.147 196.963Z" fill="#D7DADE"/>
<path d="M189.56 213.664H137.786C135.48 213.664 133.61 215.534 133.61 217.84C133.61 220.145 135.48 222.015 137.786 222.015H189.56C191.866 222.015 193.735 220.145 193.735 217.84C193.735 215.534 191.866 213.664 189.56 213.664Z" fill="#D7DADE"/>
<path d="M209.601 232.036H157.827C155.521 232.036 153.652 233.905 153.652 236.211C153.652 238.517 155.521 240.387 157.827 240.387H209.601C211.907 240.387 213.777 238.517 213.777 236.211C213.777 233.905 211.907 232.036 209.601 232.036Z" fill="#D7DADE"/>
<path d="M201.251 267.109H179.539C177.233 267.109 175.364 268.978 175.364 271.284C175.364 273.59 177.233 275.459 179.539 275.459H201.251C203.557 275.459 205.426 273.59 205.426 271.284C205.426 268.978 203.557 267.109 201.251 267.109Z" fill="#D7DADE"/>
<path d="M214.612 285.48H179.539C177.233 285.48 175.364 287.349 175.364 289.655C175.364 291.961 177.233 293.83 179.539 293.83H214.612C216.918 293.83 218.787 291.961 218.787 289.655C218.787 287.349 216.918 285.48 214.612 285.48Z" fill="#D7DADE"/>
<path d="M276.039 232.036H205.893C203.587 232.036 201.718 233.905 201.718 236.211C201.718 238.517 203.587 240.387 205.893 240.387H276.039C278.345 240.387 280.214 238.517 280.214 236.211C280.214 233.905 278.345 232.036 276.039 232.036Z" fill="#D7DADE"/>
<path d="M251.355 267.109H222.962C220.656 267.109 218.787 268.978 218.787 271.284C218.787 273.59 220.656 275.459 222.962 275.459H251.355C253.661 275.459 255.53 273.59 255.53 271.284C255.53 268.978 253.661 267.109 251.355 267.109Z" fill="#D7DADE"/>
<path d="M125.946 315.803C128.958 260.008 141.644 239.008 166.47 237.3L192.966 258.243C197.038 282.792 179.537 299.986 125.946 315.803Z" fill="#A5B1BA"/>
<path fill-rule="evenodd" clip-rule="evenodd" d="M162.05 205.736C160.469 209.749 158.911 213.856 157.375 218.057L212.706 261.791C216.472 259.432 220.138 257.074 223.708 254.716L215.566 281.424C215.101 282.951 216.694 284.292 218.12 283.571L269.058 257.826C269.694 257.505 270.083 256.84 270.052 256.128L268.514 220.794C330.104 166.435 345.334 110.917 337.375 48.3131C275.458 56.1835 225.575 85.0039 186.395 154.051L148.968 161.232C148.772 161.27 148.617 161.419 148.57 161.613L134.377 220.915C134.273 221.35 134.741 221.697 135.128 221.472L162.05 205.736ZM258.266 148.395C267.697 155.85 281.386 154.247 288.841 144.816C296.295 135.385 294.693 121.696 285.261 114.241C275.83 106.786 262.141 108.389 254.686 117.82C247.232 127.252 248.834 140.94 258.266 148.395Z" fill="url(#paint0_linear)"/>
<defs>
<linearGradient id="paint0_linear" x1="336.817" y1="47.872" x2="174.61" y2="253.091" gradientUnits="userSpaceOnUse">
<stop stop-color="#0FB2D6"/>
<stop offset="1" stop-color="#0FD3CB"/>
</linearGradient>
</defs>
</svg>
